<?xml version="1.0" standalone="no"?>
<!DOCTYPE svg PUBLIC "-//W3C//DTD SVG 20010904//EN"
 "http://www.w3.org/TR/2001/REC-SVG-20010904/DTD/svg10.dtd">
<svg version="1.0" xmlns="http://www.w3.org/2000/svg"
 width="1136.000000pt" height="1136.000000pt" viewBox="0 0 1136.000000 1136.000000"
 preserveAspectRatio="xMidYMid meet">
<metadata>
Created by potrace 1.14, written by Peter Selinger 2001-2017
</metadata>
<g transform="translate(0.000000,1136.000000) scale(0.100000,-0.100000)"
fill="#000000" stroke="none">
<path d="M3868 9034 c-2 -1 -19 -3 -38 -5 -19 -2 -41 -8 -49 -13 -8 -6 -17
-10 -20 -9 -16 6 -95 -23 -172 -64 -126 -66 -221 -150 -307 -271 -39 -55 -82
-129 -87 -152 -1 -3 -7 -18 -14 -35 -45 -108 -63 -200 -66 -349 -3 -157 28
-291 105 -448 l32 -66 -57 -54 c-101 -93 -121 -111 -225 -208 -57 -52 -115
-106 -130 -120 -63 -58 -235 -217 -265 -245 -17 -16 -74 -69 -127 -117 -52
-49 -114 -105 -136 -125 -187 -176 -250 -234 -271 -252 -22 -19 -99 -91 -304
-282 l-71 -66 -53 34 c-29 18 -65 38 -80 44 -15 6 -41 17 -58 25 -148 69 -408
70 -590 1 -51 -19 -128 -58 -135 -66 -3 -4 -23 -18 -44 -31 -101 -61 -237
-224 -295 -353 -30 -66 -70 -186 -77 -227 -10 -57 -12 -260 -3 -320 33 -235
175 -475 355 -601 27 -19 51 -36 54 -39 3 -3 32 -19 65 -37 126 -65 256 -94
400 -88 50 2 97 6 105 9 8 3 32 7 52 10 73 11 249 89 291 130 6 6 27 22 45 35
76 54 183 184 236 289 45 89 79 191 93 284 9 57 9 230 0 294 -6 44 -44 188
-61 234 -4 9 8 27 33 48 21 18 56 49 78 70 22 20 90 84 153 142 62 58 123 114
135 125 190 177 370 344 394 364 10 9 71 66 136 126 65 61 130 121 145 135 80
73 259 239 289 267 18 18 68 64 110 102 42 38 95 88 119 110 42 40 44 41 72
26 29 -15 92 -37 145 -50 17 -5 37 -10 45 -12 8 -2 67 -6 131 -8 88 -2 136 2
195 15 102 24 219 71 236 95 5 7 8 7 8 0 0 -5 6 -3 13 5 7 8 26 22 42 32 l30
16 126 -121 c221 -213 482 -464 539 -517 30 -29 138 -133 240 -230 102 -98
210 -201 240 -230 30 -28 138 -132 240 -230 102 -98 208 -199 236 -225 l51
-48 -44 -93 c-24 -52 -46 -102 -48 -111 -1 -10 -11 -47 -20 -83 -33 -123 -24
-375 17 -490 3 -8 14 -37 24 -65 77 -219 274 -422 494 -509 25 -10 53 -20 63
-22 9 -2 25 -6 35 -8 9 -2 37 -9 62 -15 46 -10 252 -9 305 3 255 56 492 246
600 481 51 112 60 140 79 251 88 501 -238 983 -717 1062 -132 21 -348 -6 -455
-58 -23 -11 -45 -20 -51 -20 -9 0 -110 93 -292 270 -42 41 -145 140 -229 220
-84 80 -185 177 -225 215 -40 39 -152 147 -250 240 -97 94 -203 195 -234 225
-32 30 -128 123 -215 205 -306 291 -301 286 -277 311 5 5 19 50 32 99 19 74
23 116 23 235 0 80 -4 156 -7 170 -4 14 -9 36 -13 50 -8 39 -9 43 -23 85 -70
217 -243 419 -447 519 -93 45 -130 57 -239 75 -45 8 -221 12 -227 5z m282
-138 c239 -64 429 -243 520 -489 53 -145 60 -350 16 -500 -15 -49 -35 -107
-46 -130 l-20 -40 50 -53 c28 -29 50 -52 50 -50 0 2 53 -48 118 -111 64 -62
179 -173 256 -246 76 -73 169 -161 206 -197 37 -36 142 -137 235 -225 92 -88
200 -191 240 -230 40 -38 154 -149 255 -245 100 -96 201 -193 224 -215 23 -22
81 -77 129 -123 l86 -83 68 34 c78 39 122 54 206 72 71 14 246 11 276 -5 12
-6 21 -8 21 -4 0 3 6 1 13 -5 8 -6 16 -8 19 -6 7 7 127 -44 149 -62 8 -7 20
-13 25 -13 26 0 198 -163 215 -202 6 -16 15 -28 19 -28 5 0 26 -37 48 -82 78
-160 105 -336 78 -506 -51 -319 -313 -595 -606 -640 -49 -8 -235 -7 -260 0 -8
3 -33 8 -55 13 -51 10 -147 54 -210 96 -63 41 -172 149 -214 212 -28 41 -80
142 -88 172 -42 149 -45 166 -45 280 -1 95 4 138 22 205 20 73 83 225 100 240
12 11 40 60 40 70 0 6 -41 50 -91 98 -162 155 -231 220 -423 405 -292 281
-306 294 -684 655 -37 35 -146 140 -242 232 -96 92 -218 209 -270 259 -52 50
-101 89 -108 86 -6 -2 -36 -22 -65 -44 -85 -64 -189 -111 -302 -138 -11 -2
-61 -6 -111 -8 -80 -3 -111 0 -211 21 -12 2 -42 13 -67 24 -26 11 -50 20 -54
20 -4 1 -21 10 -38 21 -39 24 -37 24 -71 -7 -15 -14 -65 -60 -110 -101 -44
-41 -96 -89 -115 -106 -28 -27 -189 -176 -288 -267 -15 -14 -78 -72 -140 -130
-162 -150 -158 -147 -255 -235 -48 -44 -109 -100 -135 -125 -39 -38 -162 -152
-280 -260 -52 -47 -244 -225 -300 -277 -30 -28 -67 -63 -83 -77 l-27 -25 34
-83 c53 -129 70 -209 69 -338 0 -91 -19 -216 -36 -237 -5 -7 -7 -13 -4 -13 4
0 -6 -28 -20 -62 -78 -185 -221 -333 -398 -414 -120 -55 -310 -74 -440 -44
-60 14 -179 60 -183 72 -2 4 -8 8 -14 8 -19 0 -104 64 -158 119 -56 57 -100
108 -100 115 0 3 -15 31 -34 63 -39 65 -81 183 -92 258 -10 62 -10 218 -1 265
4 19 9 49 12 65 8 42 65 187 81 206 8 8 14 19 14 24 0 4 17 31 39 59 117 155
261 249 445 293 62 14 215 14 281 -1 99 -23 95 -21 166 -55 76 -37 93 -47 140
-83 20 -16 42 -28 50 -28 8 0 44 28 80 63 37 34 113 105 170 157 56 52 122
113 145 135 24 22 80 74 125 115 45 41 96 89 113 105 18 17 79 73 136 125 57
52 118 109 135 125 128 119 272 252 406 375 50 47 106 99 124 115 60 57 250
234 273 253 28 24 27 29 -1 72 -59 88 -111 204 -131 293 -32 141 -23 337 21
447 3 8 7 22 9 31 2 9 20 47 40 85 108 206 280 342 494 393 94 23 249 21 340
-3z"/>
<path d="M8290 7781 c-129 -25 -251 -91 -350 -192 -64 -65 -103 -115 -98 -123
2 -2 -4 -12 -13 -22 -21 -25 -52 -103 -77 -191 -27 -98 -25 -296 6 -394 38
-126 95 -223 181 -309 74 -74 95 -89 166 -126 106 -55 167 -69 295 -68 108 1
133 3 170 16 8 3 40 15 71 26 l57 20 55 -61 c31 -34 75 -83 99 -108 24 -25 86
-92 138 -149 52 -57 111 -121 131 -142 20 -21 69 -75 110 -120 41 -45 88 -96
104 -114 17 -17 65 -70 109 -117 43 -48 95 -104 115 -125 20 -22 62 -67 94
-101 31 -34 57 -66 57 -71 0 -6 -10 -45 -22 -87 -31 -113 -30 -301 2 -403 6
-19 13 -43 15 -52 2 -9 20 -49 39 -88 l36 -71 -83 -86 c-45 -47 -124 -129
-175 -182 -51 -53 -175 -181 -275 -285 -286 -297 -324 -336 -400 -414 -39 -40
-73 -69 -76 -65 -12 16 -122 73 -171 88 -117 36 -247 40 -355 11 -5 -2 -23 -6
-40 -11 -133 -35 -290 -164 -372 -306 l-45 -77 -463 0 -463 0 -21 47 c-81 171
-297 333 -481 359 -192 26 -365 -20 -507 -135 -32 -26 -69 -60 -82 -76 -14
-16 -31 -35 -38 -42 -7 -8 -13 -18 -13 -24 0 -6 -4 -11 -8 -11 -5 0 -22 -26
-38 -59 l-29 -59 -358 0 -358 0 -12 26 c-21 50 -91 147 -141 197 -71 70 -174
134 -256 160 -90 28 -232 37 -315 21 -22 -4 -44 -8 -50 -10 -5 -1 -14 -4 -20
-7 -5 -4 -23 -9 -38 -13 -47 -11 -166 -88 -226 -146 -142 -137 -211 -300 -217
-510 -5 -175 30 -304 120 -438 157 -234 417 -347 671 -291 33 7 63 12 66 11 3
0 42 18 87 41 90 46 168 107 222 174 19 24 41 49 48 57 6 8 12 17 12 20 0 4
11 23 24 44 12 20 23 39 23 42 1 3 7 21 16 41 8 20 18 50 21 67 7 27 36 48 50
35 5 -5 438 -7 462 -2 5 1 14 0 19 -1 6 -1 32 -2 59 -3 l48 -2 17 -56 c51
-164 195 -338 338 -408 26 -12 55 -26 63 -31 8 -4 45 -15 82 -24 215 -54 441
10 603 169 89 89 132 158 181 290 l22 60 133 1 c74 1 150 3 169 4 19 1 40 1
45 0 6 -1 117 -1 247 -1 252 0 249 1 262 -52 9 -39 50 -126 80 -170 14 -21 26
-40 26 -43 0 -3 24 -31 53 -61 200 -211 477 -272 732 -163 25 11 46 18 48 17
1 -1 9 3 17 10 8 7 42 34 75 59 100 79 156 150 209 266 63 136 86 327 56 461
-12 53 -12 59 6 76 10 10 107 110 214 221 107 112 224 233 260 270 264 273
461 478 533 554 48 50 90 85 96 82 28 -17 209 -26 278 -14 72 13 167 52 235
97 72 47 178 149 178 170 0 6 4 11 8 11 4 0 24 30 43 68 18 37 39 70 44 74 6
4 7 8 4 8 -4 0 4 35 18 78 19 60 25 101 26 182 2 188 -28 289 -136 465 -47 76
-203 198 -295 230 -26 10 -56 21 -67 25 -31 13 -94 21 -160 22 -54 0 -75 -2
-155 -15 -32 -6 -142 -47 -154 -58 -6 -5 -26 9 -50 35 -23 24 -84 90 -136 146
-52 57 -103 112 -113 124 -10 11 -60 66 -110 120 -51 54 -99 106 -107 116 -8
9 -42 46 -75 81 -33 35 -105 113 -160 173 -55 60 -116 125 -135 146 -19 21
-58 63 -87 94 l-52 56 20 57 c52 151 55 313 10 472 -63 221 -248 412 -461 475
-65 20 -226 29 -290 17z m208 -122 c155 -39 236 -90 333 -209 40 -49 93 -151
105 -203 4 -17 9 -39 12 -47 2 -8 5 -61 7 -118 2 -81 -1 -120 -18 -180 -11
-42 -24 -78 -29 -80 -4 -2 -8 -10 -8 -18 0 -8 -6 -23 -12 -34 -17 -27 -6 -43
127 -186 143 -153 325 -351 465 -504 88 -96 181 -198 220 -239 25 -26 74 -80
110 -120 36 -39 93 -102 128 -138 l63 -67 82 41 c114 57 202 73 332 59 50 -5
148 -42 200 -74 73 -46 168 -152 205 -227 45 -94 46 -97 66 -190 6 -26 5 -172
-1 -205 -12 -68 -27 -113 -58 -174 -38 -77 -62 -111 -117 -165 -38 -37 -113
-92 -130 -97 -3 0 -23 -9 -45 -19 -97 -44 -232 -51 -351 -19 l-62 16 -38 -39
c-22 -22 -127 -131 -234 -242 -107 -112 -233 -243 -280 -291 -131 -135 -468
-484 -564 -585 -66 -69 -85 -95 -81 -110 3 -11 7 -27 10 -36 2 -9 8 -32 13
-51 9 -34 9 -236 -1 -273 -46 -176 -161 -325 -307 -397 -103 -50 -138 -58
-254 -54 -146 4 -245 45 -352 143 -86 80 -159 209 -178 314 -11 56 -12 59 -23
70 -8 8 -148 11 -480 11 -584 -1 -547 -1 -540 -8 3 -3 2 -17 -4 -31 -5 -13
-11 -38 -15 -56 -8 -51 -47 -138 -86 -197 -157 -235 -444 -316 -692 -194 -29
14 -66 37 -82 51 -16 14 -36 30 -44 37 -78 58 -174 239 -193 364 -2 12 -6 24
-9 27 -10 10 -803 8 -804 -1 0 -5 -4 -21 -8 -35 -4 -14 -9 -32 -10 -40 -2 -8
-5 -21 -8 -29 -3 -8 -14 -37 -23 -65 -39 -110 -139 -229 -248 -294 -53 -32
-163 -69 -198 -67 -16 1 -29 -1 -29 -4 0 -3 -35 -3 -77 1 -215 19 -391 153
-477 364 -30 76 -38 118 -41 225 -3 128 30 246 98 350 36 54 153 170 173 170
8 0 14 4 14 8 0 13 96 51 164 66 59 12 166 13 213 1 13 -3 32 -7 42 -9 43 -10
150 -69 197 -108 68 -58 115 -121 158 -211 29 -62 41 -77 59 -78 12 0 132 0
267 1 135 0 252 1 260 1 66 -1 269 -2 286 -2 17 1 27 14 44 56 106 262 386
411 643 343 169 -45 291 -150 373 -321 36 -75 38 -77 73 -78 20 0 137 0 261 1
124 0 232 1 240 1 30 -1 465 0 475 1 6 0 15 -1 20 -2 28 -7 42 4 59 48 10 26
38 76 62 112 110 168 284 261 474 253 85 -3 106 -6 116 -16 4 -4 15 -7 23 -7
19 0 128 -55 152 -76 8 -8 20 -14 26 -14 6 0 13 -6 16 -14 3 -7 14 -16 26 -19
16 -4 58 35 208 191 103 107 211 218 238 247 69 71 458 475 594 615 102 106
109 116 97 135 -159 243 -182 434 -81 682 l16 41 -53 57 c-62 67 -124 134
-176 190 -38 42 -227 247 -272 296 -14 15 -63 69 -110 120 -47 51 -98 107
-115 124 -16 18 -66 72 -110 120 -44 49 -93 102 -110 120 -16 17 -66 70 -109
117 l-79 86 -54 -28 c-56 -30 -103 -48 -156 -58 -43 -9 -173 -9 -220 1 -45 8
-141 48 -145 59 -2 4 -9 8 -16 8 -17 0 -102 73 -146 126 -39 47 -97 152 -104
189 -2 11 -9 33 -15 48 -6 16 -9 33 -5 38 3 5 2 9 -3 9 -13 0 -8 189 6 253 33
150 143 308 259 371 20 12 39 24 40 29 2 4 12 7 21 7 10 0 21 3 25 8 31 30
217 50 294 31z"/>
</g>
</svg>
