<svg width="94" height="92" viewBox="0 0 94 92" fill="none" xmlns="http://www.w3.org/2000/svg">
<path d="M55.2793 39L78.3471 56.7197C80.8023 58.6057 81.3236 62.0969 79.5264 64.6177V64.6177C77.68 67.2077 74.0817 67.8066 71.4959 65.9544L64.8874 61.2209" stroke="#FFAC30" stroke-linecap="round"/>
<path d="M55.2792 39C50.7792 35.5 46.7792 38 40.7792 38C36.2792 38 32.2792 35.5 31.7792 31.5C31.4041 28.5 43.2792 27.4999 48.2792 26.9999C53.2792 26.5 57.2792 29 60.7792 30C63.5792 30.8 68.7792 28.6667 71.2792 27.5" stroke="#FFAC30"/>
<path d="M66.6457 62.4351L71.1993 65.7949C73.3721 67.398 73.8576 70.4475 72.2901 72.6461V72.6461C70.7193 74.8495 67.6695 75.3816 65.4454 73.8403L59.1574 69.4828" stroke="#FFAC30" stroke-linecap="round"/>
<path d="M59.2792 69.5002L64.8892 73.5519C66.7516 74.897 67.149 77.5079 65.771 79.3461V79.3461C64.3996 81.1755 61.7985 81.5332 59.9843 80.1419L53.2793 75.0002" stroke="#FFAC30" stroke-linecap="round"/>
<path d="M53.2791 75.0002L57.8834 78.4535C59.7589 79.8601 60.1393 82.5206 58.7332 84.3964V84.3964C57.3637 86.2233 54.7946 86.6399 52.918 85.3394L47.7792 81.7783" stroke="#FFAC30" stroke-linecap="round"/>
<rect x="12.1177" y="60.6106" width="19.6318" height="9.93922" rx="4.96961" transform="rotate(-39.3518 12.1177 60.6106)" stroke="#FFAC30"/>
<rect x="25.0914" y="75.8645" width="19.0117" height="10.0037" rx="5.00185" transform="rotate(-39.3518 25.0914 75.8645)" stroke="#FFAC30"/>
<rect x="31.3868" y="83.7659" width="15.3281" height="9.42482" rx="4.71241" transform="rotate(-39.3518 31.3868 83.7659)" stroke="#FFAC30"/>
<rect x="18.483" y="68.3635" width="24.6156" height="10.0037" rx="5.00185" transform="rotate(-39.3518 18.483 68.3635)" stroke="#FFAC30"/>
<rect x="0.252441" y="53.4248" width="38.5581" height="6.64481" rx="3.3224" transform="rotate(-60 0.252441 53.4248)" fill="#FFAC30"/>
<rect width="38.5581" height="7.6328" rx="3.8164" transform="matrix(-0.5 -0.866025 -0.866025 0.5 93.6685 52.9307)" fill="#FFAC30"/>
<path d="M8.2793 52C10.2793 52 12.7793 52.5 16.2793 57" stroke="#FFAC30"/>
<path d="M84.7793 52C83.0293 52 80.8418 52.4 77.7793 56" stroke="#FFAC30"/>
<line x1="21.923" y1="27.5211" x2="31.923" y2="30.5211" stroke="#FFAC30"/>
<line x1="46.2793" y1="11.5" x2="46.2793" y2="0.5" stroke="#FFAC30" stroke-linecap="round"/>
<line x1="33.089" y1="16.8466" x2="26.6259" y2="6.69027" stroke="#FFAC30" stroke-linecap="round"/>
<line x1="0.5" y1="-0.5" x2="12.5384" y2="-0.5" transform="matrix(0.536875 -0.843661 -0.843661 -0.536875 59.7793 17)" stroke="#FFAC30" stroke-linecap="round"/>
</svg>
