<svg width="469" height="174" viewBox="0 0 469 174" fill="none" xmlns="http://www.w3.org/2000/svg">
<path d="M3.47598 122.428V131.188H2.17171V122.428H3.47598ZM9.5378 122.428L5.26682 127.247H2.95562L2.75289 126.284H4.48966L7.92267 122.428H9.5378ZM8.22677 131.188L4.53021 127.097L5.26006 126.08L9.82163 131.188H8.22677Z" fill="#FFAC30"/>
<path d="M21.7744 123.204L18.5171 131.188H17.1858L20.9365 122.428H21.7947L21.7744 123.204ZM24.5046 131.188L21.2406 123.204L21.2203 122.428H22.0785L25.8427 131.188H24.5046ZM24.3357 127.945V128.896H18.8077V127.945H24.3357Z" fill="#FFAC30"/>
<path d="M33.7881 122.428H35.0923V125.165C35.0923 125.619 35.1667 125.974 35.3153 126.23C35.464 126.487 35.6893 126.668 35.9911 126.772C36.293 126.876 36.6692 126.928 37.1197 126.928C37.39 126.928 37.6513 126.918 37.9036 126.898C38.1604 126.878 38.4105 126.85 38.6537 126.814C38.897 126.778 39.1358 126.734 39.3701 126.682C39.6088 126.629 39.8431 126.573 40.0729 126.513V127.464C39.8521 127.524 39.6314 127.58 39.4106 127.632C39.1944 127.684 38.9691 127.728 38.7348 127.764C38.5051 127.801 38.2573 127.829 37.9915 127.849C37.7302 127.869 37.4396 127.879 37.1197 127.879C36.4259 127.879 35.8289 127.791 35.3289 127.614C34.8333 127.434 34.4526 127.145 34.1868 126.748C33.921 126.351 33.7881 125.823 33.7881 125.165V122.428ZM39.7418 122.428H41.046V131.188H39.7418V122.428Z" fill="#FFAC30"/>
<path d="M56.763 130.243V131.188H51.5527V130.243H56.763ZM51.8162 122.428V131.188H50.5119V122.428H51.8162ZM56.0737 126.194V127.139H51.5527V126.194H56.0737ZM56.6954 122.428V123.379H51.5527V122.428H56.6954Z" fill="#FFAC30"/>
<path d="M71.446 128.402H72.7435C72.6759 128.956 72.4979 129.451 72.2096 129.888C71.9213 130.325 71.5135 130.672 70.9864 130.929C70.4593 131.182 69.8016 131.308 69.0131 131.308C68.4365 131.308 67.9116 131.212 67.4385 131.019C66.97 130.827 66.5668 130.554 66.2289 130.201C65.891 129.844 65.6297 129.417 65.445 128.92C65.2648 128.418 65.1747 127.861 65.1747 127.247V126.375C65.1747 125.761 65.2648 125.206 65.445 124.708C65.6297 124.207 65.8932 123.778 66.2356 123.421C66.5826 123.064 66.9993 122.789 67.4859 122.596C67.9724 122.404 68.5198 122.308 69.128 122.308C69.8714 122.308 70.4999 122.432 71.0135 122.681C71.5271 122.929 71.9258 123.274 72.2096 123.716C72.4979 124.153 72.6759 124.66 72.7435 125.238H71.446C71.3829 124.829 71.2658 124.478 71.0946 124.185C70.9234 123.888 70.6801 123.659 70.3647 123.499C70.0493 123.339 69.6371 123.258 69.128 123.258C68.691 123.258 68.3058 123.332 67.9724 123.481C67.6435 123.629 67.3665 123.84 67.1412 124.113C66.9204 124.385 66.7537 124.712 66.6411 125.093C66.5285 125.474 66.4722 125.897 66.4722 126.363V127.247C66.4722 127.676 66.5217 128.079 66.6208 128.456C66.7245 128.833 66.8799 129.164 67.0871 129.449C67.2944 129.734 67.5579 129.958 67.8778 130.123C68.1977 130.283 68.5761 130.364 69.0131 130.364C69.5673 130.364 70.0088 130.285 70.3377 130.129C70.6666 129.972 70.9144 129.748 71.081 129.455C71.2522 129.162 71.3739 128.811 71.446 128.402Z" fill="#FFAC30"/>
<path d="M85.0815 122.428V131.188H83.7975V122.428H85.0815ZM88.2442 122.428V123.379H80.6415V122.428H88.2442Z" fill="#FFAC30"/>
<path d="M100.339 127.091H97.8452L97.8317 126.158H100.096C100.47 126.158 100.796 126.102 101.076 125.99C101.355 125.877 101.571 125.717 101.724 125.508C101.882 125.296 101.961 125.043 101.961 124.75C101.961 124.429 101.891 124.169 101.751 123.968C101.616 123.764 101.407 123.615 101.123 123.523C100.843 123.427 100.488 123.379 100.055 123.379H98.1358V131.188H96.8316V122.428H100.055C100.56 122.428 101.01 122.474 101.407 122.566C101.803 122.655 102.139 122.795 102.414 122.988C102.693 123.176 102.905 123.417 103.049 123.71C103.193 124.002 103.265 124.353 103.265 124.762C103.265 125.123 103.161 125.45 102.954 125.743C102.747 126.032 102.459 126.268 102.089 126.453C101.724 126.637 101.296 126.756 100.805 126.808L100.339 127.091ZM100.278 131.188H97.3316L98.0682 130.243H100.278C100.693 130.243 101.044 130.179 101.332 130.051C101.625 129.922 101.848 129.742 102.001 129.509C102.155 129.273 102.231 128.994 102.231 128.673C102.231 128.348 102.166 128.067 102.035 127.831C101.904 127.594 101.699 127.412 101.42 127.283C101.141 127.155 100.78 127.091 100.339 127.091H98.4805L98.494 126.158H101.035L101.312 126.495C101.785 126.531 102.186 126.651 102.515 126.856C102.844 127.057 103.094 127.313 103.265 127.626C103.441 127.939 103.529 128.284 103.529 128.661C103.529 129.206 103.393 129.668 103.123 130.045C102.857 130.418 102.481 130.702 101.995 130.899C101.508 131.091 100.936 131.188 100.278 131.188Z" fill="#FFAC30"/>
<path d="M118.833 130.243V131.188H113.623V130.243H118.833ZM113.887 122.428V131.188H112.582V122.428H113.887ZM118.144 126.194V127.139H113.623V126.194H118.144ZM118.766 122.428V123.379H113.623V122.428H118.766Z" fill="#FFAC30"/>
<path d="M134.003 126.194V127.139H128.678V126.194H134.003ZM128.88 122.428V131.188H127.576V122.428H128.88ZM135.138 122.428V131.188H133.841V122.428H135.138Z" fill="#FFAC30"/>
<path d="M151.011 126.194V127.139H145.685V126.194H151.011ZM145.888 122.428V131.188H144.584V122.428H145.888ZM152.146 122.428V131.188H150.848V122.428H152.146Z" fill="#FFAC30"/>
<path d="M162.646 125.996H165.329C166.05 125.996 166.658 126.104 167.153 126.321C167.649 126.533 168.025 126.832 168.282 127.217C168.539 127.602 168.667 128.053 168.667 128.571C168.667 128.956 168.595 129.309 168.451 129.63C168.307 129.946 168.093 130.223 167.809 130.46C167.525 130.692 167.176 130.873 166.761 131.001C166.347 131.126 165.869 131.188 165.329 131.188H161.652V122.428H162.957V130.243H165.329C165.811 130.243 166.2 130.165 166.498 130.009C166.8 129.848 167.02 129.64 167.16 129.383C167.3 129.126 167.37 128.851 167.37 128.559C167.37 128.266 167.3 127.997 167.16 127.752C167.02 127.508 166.8 127.313 166.498 127.169C166.2 127.02 165.811 126.946 165.329 126.946H162.646V125.996ZM171.161 122.428V131.188H169.856V122.428H171.161Z" fill="#FFAC30"/>
<path d="M186.945 130.243V131.188H181.735V130.243H186.945ZM181.999 122.428V131.188H180.694V122.428H181.999ZM186.256 126.194V127.139H181.735V126.194H186.256ZM186.878 122.428V123.379H181.735V122.428H186.878Z" fill="#FFAC30"/>
<path d="M450.62 172.945V155.35H453.112V162.792H456.156C458.002 162.792 459.45 163.014 460.502 163.457C461.572 163.901 462.329 164.501 462.772 165.256C463.233 166.012 463.464 166.858 463.464 167.794C463.464 168.829 463.215 169.733 462.717 170.505C462.237 171.277 461.48 171.877 460.447 172.304C459.413 172.731 458.085 172.945 456.461 172.945H450.62ZM456.239 171.072C457.826 171.072 458.998 170.801 459.755 170.259C460.511 169.717 460.89 168.895 460.89 167.794C460.89 167.039 460.705 166.439 460.336 165.996C459.985 165.552 459.441 165.232 458.703 165.034C457.965 164.837 457.024 164.739 455.88 164.739H453.112V171.072H456.239ZM466.509 172.945V155.35H469V172.945H466.509Z" fill="#FFAC30"/>
<path d="M53.2361 156.878C52.3134 156.878 51.4738 156.976 50.7172 157.173C49.9606 157.354 49.2778 157.568 48.6689 157.814L47.6447 155.966C48.4013 155.637 49.2686 155.383 50.2466 155.202C51.2247 155.021 52.2304 154.931 53.2638 154.931C54.8508 154.931 56.2256 155.153 57.3882 155.596C58.5692 156.023 59.5472 156.631 60.3223 157.42C61.0973 158.208 61.6694 159.137 62.0385 160.204C62.426 161.256 62.6197 162.414 62.6197 163.679C62.6197 165.601 62.2691 167.261 61.5679 168.657C60.8666 170.053 59.8056 171.129 58.3847 171.885C56.9822 172.641 55.2107 173.019 53.07 173.019C51.9259 173.019 50.9571 172.961 50.1636 172.846C49.3701 172.731 48.5858 172.551 47.8108 172.304V170.382C48.5858 170.563 49.3701 170.727 50.1636 170.875C50.9571 171.006 51.7967 171.072 52.6825 171.072C53.882 171.072 54.9246 170.932 55.8104 170.653C56.7146 170.357 57.4712 169.938 58.0802 169.396C58.6891 168.838 59.1505 168.156 59.4642 167.351C59.7779 166.529 59.9532 165.593 59.9901 164.542H50.3851V162.595H59.9624C59.8702 161.691 59.6487 160.886 59.2981 160.18C58.9475 159.473 58.4769 158.874 57.8864 158.381C57.3144 157.888 56.6316 157.518 55.8381 157.272C55.063 157.009 54.1957 156.878 53.2361 156.878Z" fill="#FFAC30"/>
<path d="M80.7028 172.772H78.2115V157.124H71.9558C71.8266 158.028 71.6882 158.981 71.5406 159.983C71.393 160.968 71.2361 161.946 71.07 162.915C70.9224 163.884 70.7748 164.796 70.6271 165.651C70.4795 166.505 70.3319 167.252 70.1842 167.893C69.9443 168.994 69.6491 169.93 69.2985 170.702C68.9479 171.474 68.4773 172.058 67.8868 172.452C67.3147 172.846 66.5581 173.043 65.617 173.043C65.3033 173.043 64.9803 173.01 64.6482 172.945C64.3345 172.895 64.0577 172.83 63.8178 172.748V170.899C64.0208 170.982 64.2514 171.055 64.5098 171.121C64.7681 171.171 65.0449 171.195 65.3402 171.195C65.8938 171.195 66.3275 170.998 66.6412 170.604C66.9733 170.193 67.2317 169.692 67.4162 169.1C67.6007 168.493 67.7576 167.893 67.8868 167.302C67.9975 166.825 68.1267 166.193 68.2743 165.404C68.4219 164.599 68.5788 163.663 68.7449 162.595C68.9294 161.527 69.1139 160.369 69.2985 159.12C69.5015 157.855 69.6952 156.541 69.8798 155.177H80.7028V172.772Z" fill="#FFAC30"/>
<path d="M97.1174 172.772H86.073V155.177H97.1174V157.124H88.5642V162.62H96.6191V164.542H88.5642V170.826H97.1174V172.772Z" fill="#FFAC30"/>
<path d="M115.875 172.772H112.886L103.945 163.852V172.772H101.454V155.177H103.945V163.704L112.664 155.177H115.488L106.907 163.728L115.875 172.772Z" fill="#FFAC30"/>
<path d="M124.821 172.772H122.329V157.124H116.157V155.177H130.966V157.124H124.821V172.772Z" fill="#FFAC30"/>
<path d="M139.177 155.177C141.761 155.177 143.643 155.629 144.824 156.533C146.005 157.436 146.596 158.71 146.596 160.352C146.596 161.075 146.457 161.773 146.181 162.447C145.922 163.104 145.489 163.696 144.88 164.221C144.271 164.747 143.459 165.166 142.444 165.478C141.429 165.774 140.183 165.922 138.707 165.922H136.437V172.772H133.946V155.177H139.177ZM138.956 157.075H136.437V164.024H138.43C139.685 164.024 140.728 163.909 141.558 163.679C142.388 163.433 143.007 163.047 143.413 162.521C143.818 161.995 144.021 161.305 144.021 160.451C144.021 159.317 143.615 158.471 142.804 157.913C141.992 157.354 140.709 157.075 138.956 157.075Z" fill="#FFAC30"/>
<path d="M167.95 163.95C167.95 165.314 167.756 166.554 167.369 167.671C166.981 168.772 166.4 169.725 165.625 170.53C164.868 171.335 163.918 171.951 162.774 172.378C161.648 172.805 160.338 173.019 158.843 173.019C157.293 173.019 155.946 172.805 154.802 172.378C153.658 171.934 152.708 171.318 151.951 170.53C151.194 169.725 150.632 168.764 150.263 167.647C149.893 166.529 149.709 165.289 149.709 163.926C149.709 162.118 150.041 160.541 150.705 159.194C151.37 157.847 152.375 156.796 153.723 156.04C155.088 155.284 156.804 154.906 158.871 154.906C160.846 154.906 162.506 155.284 163.854 156.04C165.201 156.779 166.216 157.831 166.898 159.194C167.6 160.541 167.95 162.127 167.95 163.95ZM152.339 163.95C152.339 165.429 152.569 166.702 153.031 167.77C153.492 168.838 154.202 169.659 155.162 170.234C156.14 170.809 157.367 171.097 158.843 171.097C160.338 171.097 161.556 170.809 162.497 170.234C163.457 169.659 164.167 168.838 164.629 167.77C165.09 166.702 165.321 165.429 165.321 163.95C165.321 161.732 164.804 159.999 163.771 158.751C162.737 157.486 161.104 156.853 158.871 156.853C157.376 156.853 156.14 157.141 155.162 157.716C154.202 158.274 153.492 159.087 153.031 160.155C152.569 161.207 152.339 162.472 152.339 163.95Z" fill="#FFAC30"/>
<path d="M181.05 172.772L174.545 157.346H174.434C174.471 157.675 174.499 158.093 174.517 158.603C174.554 159.112 174.582 159.671 174.6 160.278C174.619 160.87 174.628 161.478 174.628 162.102V172.772H172.331V155.177H176.012L182.102 169.593H182.212L188.413 155.177H192.067V172.772H189.603V161.954C189.603 161.379 189.612 160.812 189.631 160.254C189.649 159.679 189.677 159.145 189.714 158.652C189.751 158.143 189.778 157.716 189.797 157.371H189.686L183.098 172.772H181.05Z" fill="#FFAC30"/>
<path d="M214.688 163.95C214.688 165.314 214.494 166.554 214.106 167.671C213.719 168.772 213.138 169.725 212.363 170.53C211.606 171.335 210.656 171.951 209.512 172.378C208.386 172.805 207.076 173.019 205.581 173.019C204.031 173.019 202.684 172.805 201.54 172.378C200.395 171.934 199.445 171.318 198.689 170.53C197.932 169.725 197.369 168.764 197 167.647C196.631 166.529 196.446 165.289 196.446 163.926C196.446 162.118 196.779 160.541 197.443 159.194C198.107 157.847 199.113 156.796 200.46 156.04C201.826 155.284 203.542 154.906 205.609 154.906C207.583 154.906 209.244 155.284 210.591 156.04C211.938 156.779 212.953 157.831 213.636 159.194C214.337 160.541 214.688 162.127 214.688 163.95ZM199.076 163.95C199.076 165.429 199.307 166.702 199.768 167.77C200.229 168.838 200.94 169.659 201.899 170.234C202.877 170.809 204.105 171.097 205.581 171.097C207.076 171.097 208.294 170.809 209.235 170.234C210.194 169.659 210.905 168.838 211.366 167.77C211.827 166.702 212.058 165.429 212.058 163.95C212.058 161.732 211.541 159.999 210.508 158.751C209.475 157.486 207.842 156.853 205.609 156.853C204.114 156.853 202.877 157.141 201.899 157.716C200.94 158.274 200.229 159.087 199.768 160.155C199.307 161.207 199.076 162.472 199.076 163.95Z" fill="#FFAC30"/>
<path d="M234.182 172.772H231.69V164.566H221.559V172.772H219.068V155.177H221.559V162.62H231.69V155.177H234.182V172.772Z" fill="#FFAC30"/>
<path d="M245.841 172.772H243.35V157.124H237.177V155.177H251.986V157.124H245.841V172.772Z" fill="#FFAC30"/>
<path d="M265.421 172.772L263.04 167.326H255.207L252.854 172.772H250.335L258.058 155.103H260.3L267.995 172.772H265.421ZM260.078 160.032C260.023 159.901 259.931 159.662 259.801 159.317C259.672 158.972 259.543 158.619 259.414 158.258C259.303 157.88 259.211 157.592 259.137 157.395C259.045 157.724 258.943 158.061 258.833 158.406C258.74 158.734 258.639 159.038 258.528 159.317C258.436 159.597 258.353 159.835 258.279 160.032L256.037 165.355H262.293L260.078 160.032Z" fill="#FFAC30"/>
<path d="M275.985 163.728L268.318 155.177H271.086L278.643 163.704V155.177H281.023V163.704L288.58 155.177H291.348L283.68 163.704L291.597 172.772H288.746L281.023 163.852V172.772H278.643V163.852L270.892 172.772H268.041L275.985 163.728Z" fill="#FFAC30"/>
<path d="M309.437 172.772H306.946V164.566H296.815V172.772H294.324V155.177H296.815V162.62H306.946V155.177H309.437V172.772Z" fill="#FFAC30"/>
<path d="M314.841 172.772V155.177H317.332V162.62H320.377C322.222 162.62 323.671 162.841 324.723 163.285C325.793 163.728 326.55 164.328 326.993 165.084C327.454 165.839 327.685 166.686 327.685 167.622C327.685 168.657 327.435 169.561 326.937 170.333C326.457 171.105 325.701 171.704 324.667 172.132C323.634 172.559 322.305 172.772 320.681 172.772H314.841ZM320.46 170.899C322.047 170.899 323.219 170.628 323.975 170.086C324.732 169.544 325.11 168.723 325.11 167.622C325.11 166.866 324.926 166.267 324.557 165.823C324.206 165.379 323.662 165.059 322.924 164.862C322.185 164.665 321.244 164.566 320.1 164.566H317.332V170.899H320.46ZM330.729 172.772V155.177H333.221V172.772H330.729Z" fill="#FFAC30"/>
<path d="M349.646 172.772H338.602V155.177H349.646V157.124H341.093V162.62H349.148V164.542H341.093V170.826H349.646V172.772Z" fill="#FFAC30"/>
<path d="M398.071 172.945V170.326V167.657V155.35H409.807V157.297H400.562V162.792H403.496C405.471 162.792 407.002 163.014 408.091 163.457C409.18 163.884 409.937 164.476 410.361 165.232C410.785 165.971 410.998 166.825 410.998 167.794C410.998 168.862 410.758 169.782 410.278 170.554C409.817 171.327 409.06 171.918 408.008 172.329C407.674 172.459 407.307 172.569 406.906 172.658C406.044 172.849 405.027 172.945 403.856 172.945H403.219H398.071ZM403.607 171.047C403.759 171.047 403.906 171.045 404.05 171.042C405.588 171 406.686 170.739 407.344 170.259C408.064 169.717 408.423 168.895 408.423 167.794C408.423 167.039 408.248 166.439 407.897 165.996C407.565 165.536 407.012 165.207 406.237 165.01C405.48 164.813 404.465 164.714 403.192 164.714H400.562V169.067V171.047H403.607Z" fill="#FFAC30"/>
<path d="M432.346 164.221C432.346 165.585 432.152 166.825 431.764 167.942C431.377 169.043 430.796 169.996 430.021 170.801C429.264 171.606 428.314 172.222 427.169 172.649C426.044 173.076 424.734 173.29 423.239 173.29C421.689 173.29 420.342 173.076 419.198 172.649C418.053 172.206 417.103 171.589 416.346 170.801C415.59 169.996 415.027 169.035 414.658 167.918C414.289 166.801 414.104 165.56 414.104 164.197C414.104 162.389 414.437 160.812 415.101 159.465C415.765 158.118 416.771 157.067 418.118 156.311C419.484 155.555 421.2 155.177 423.267 155.177C425.241 155.177 426.902 155.555 428.249 156.311C429.596 157.05 430.611 158.102 431.294 159.465C431.995 160.812 432.346 162.398 432.346 164.221ZM416.734 164.221C416.734 165.7 416.965 166.973 417.426 168.041C417.887 169.109 418.598 169.93 419.557 170.505C420.535 171.08 421.763 171.368 423.239 171.368C424.734 171.368 425.951 171.08 426.893 170.505C427.852 169.93 428.563 169.109 429.024 168.041C429.485 166.973 429.716 165.7 429.716 164.221C429.716 162.003 429.199 160.27 428.166 159.022C427.133 157.757 425.499 157.124 423.267 157.124C421.772 157.124 420.535 157.412 419.557 157.987C418.598 158.545 417.887 159.358 417.426 160.426C416.965 161.478 416.734 162.743 416.734 164.221Z" fill="#FFAC30"/>
<path d="M442.144 172.772H439.653V157.124H433.48V155.177H448.289V157.124H442.144V172.772Z" fill="#FFAC30"/>
<path d="M23.6667 66.8087C21.037 66.8087 18.6611 67.2194 16.539 68.0409C14.4168 68.8212 12.6176 69.9917 11.1413 71.5524C9.66503 73.0721 8.53476 74.9408 7.75048 77.1586C6.96621 79.3354 6.57407 81.7997 6.57407 84.5515C6.57407 88.1657 7.19687 91.3077 8.44248 93.9773C9.73423 96.6469 11.6257 98.7005 14.117 100.138C16.6543 101.575 19.8145 102.294 23.5974 102.294C25.7657 102.294 27.8187 102.13 29.7563 101.801C31.6939 101.473 33.5854 101.062 35.4308 100.569V105.375C33.5854 105.991 31.6709 106.442 29.6871 106.73C27.7495 107.017 25.4197 107.161 22.6978 107.161C17.6693 107.161 13.4711 106.237 10.1033 104.389C6.73554 102.541 4.19818 99.9121 2.49122 96.5032C0.830406 93.0942 0 89.0898 0 84.4898C0 81.1631 0.507467 78.1238 1.52241 75.372C2.58349 72.6203 4.1059 70.2382 6.08966 68.2257C8.11955 66.2132 10.6108 64.673 13.5633 63.6052C16.5159 62.4963 19.9067 61.9418 23.7359 61.9418C26.2732 61.9418 28.7183 62.1677 31.0711 62.6195C33.424 63.0712 35.523 63.7079 37.3684 64.5293L34.8772 69.2114C33.3547 68.5953 31.6478 68.0409 29.7563 67.548C27.911 67.0551 25.8811 66.8087 23.6667 66.8087Z" fill="#FFAC30"/>
<path d="M61.8541 106.545H55.626V67.4248H40.1943V62.5578H77.2167V67.4248H61.8541V106.545Z" fill="#FFAC30"/>
<path d="M97.746 62.5578C104.205 62.5578 108.91 63.6873 111.863 65.9462C114.816 68.2051 116.292 71.3881 116.292 75.4953C116.292 77.3024 115.946 79.0479 115.254 80.7318C114.608 82.3747 113.524 83.8532 112.001 85.1675C110.479 86.4818 108.449 87.5291 105.912 88.3095C103.374 89.0487 100.26 89.4184 96.5696 89.4184H90.8952V106.545H84.6671V62.5578H97.746ZM97.1924 67.3016H90.8952V84.6747H95.8776C99.0147 84.6747 101.621 84.3872 103.697 83.8122C105.773 83.1961 107.319 82.2309 108.334 80.9167C109.349 79.6024 109.856 77.8774 109.856 75.7417C109.856 72.9078 108.841 70.7926 106.811 69.3962C104.781 67.9998 101.575 67.3016 97.1924 67.3016Z" fill="#FFAC30"/>
<path d="M169.678 84.4898C169.678 87.8988 169.194 90.9996 168.225 93.7925C167.256 96.5442 165.803 98.9264 163.865 100.939C161.974 102.951 159.598 104.491 156.738 105.559C153.923 106.627 150.648 107.161 146.911 107.161C143.036 107.161 139.668 106.627 136.808 105.559C133.947 104.45 131.572 102.91 129.68 100.939C127.789 98.9264 126.381 96.5237 125.459 93.7309C124.536 90.938 124.075 87.8371 124.075 84.4282C124.075 79.9104 124.905 75.9676 126.566 72.5997C128.227 69.2319 130.741 66.6034 134.109 64.7141C137.523 62.8248 141.813 61.8802 146.98 61.8802C151.917 61.8802 156.069 62.8248 159.436 64.7141C162.804 66.5623 165.342 69.1908 167.048 72.5997C168.802 75.9676 169.678 79.931 169.678 84.4898ZM130.649 84.4898C130.649 88.1862 131.226 91.3693 132.379 94.0389C133.532 96.7085 135.308 98.7621 137.707 100.2C140.152 101.637 143.22 102.356 146.911 102.356C150.648 102.356 153.693 101.637 156.046 100.2C158.445 98.7621 160.221 96.7085 161.374 94.0389C162.527 91.3693 163.104 88.1862 163.104 84.4898C163.104 78.9452 161.812 74.6122 159.229 71.4908C156.645 68.3283 152.562 66.7471 146.98 66.7471C143.243 66.7471 140.152 67.4659 137.707 68.9033C135.308 70.2998 133.532 72.3328 132.379 75.0024C131.226 77.631 130.649 80.7934 130.649 84.4898Z" fill="#FFAC30"/>
<path d="M23.6667 66.8087C21.037 66.8087 18.6611 67.2194 16.539 68.0409C14.4168 68.8212 12.6176 69.9917 11.1413 71.5524C9.66503 73.0721 8.53476 74.9408 7.75048 77.1586C6.96621 79.3354 6.57407 81.7997 6.57407 84.5515C6.57407 88.1657 7.19687 91.3077 8.44248 93.9773C9.73423 96.6469 11.6257 98.7005 14.117 100.138C16.6543 101.575 19.8145 102.294 23.5974 102.294C25.7657 102.294 27.8187 102.13 29.7563 101.801C31.6939 101.473 33.5854 101.062 35.4308 100.569V105.375C33.5854 105.991 31.6709 106.442 29.6871 106.73C27.7495 107.017 25.4197 107.161 22.6978 107.161C17.6693 107.161 13.4711 106.237 10.1033 104.389C6.73554 102.541 4.19818 99.9121 2.49122 96.5032C0.830406 93.0942 0 89.0898 0 84.4898C0 81.1631 0.507467 78.1238 1.52241 75.372C2.58349 72.6203 4.1059 70.2382 6.08966 68.2257C8.11955 66.2132 10.6108 64.673 13.5633 63.6052C16.5159 62.4963 19.9067 61.9418 23.7359 61.9418C26.2732 61.9418 28.7183 62.1677 31.0711 62.6195C33.424 63.0712 35.523 63.7079 37.3684 64.5293L34.8772 69.2114C33.3547 68.5953 31.6478 68.0409 29.7563 67.548C27.911 67.0551 25.8811 66.8087 23.6667 66.8087Z" fill="#FFAC30"/>
<path d="M61.8541 106.545H55.626V67.4248H40.1943V62.5578H77.2167V67.4248H61.8541V106.545Z" fill="#FFAC30"/>
<path d="M97.746 62.5578C104.205 62.5578 108.91 63.6873 111.863 65.9462C114.816 68.2051 116.292 71.3881 116.292 75.4953C116.292 77.3024 115.946 79.0479 115.254 80.7318C114.608 82.3747 113.524 83.8532 112.001 85.1675C110.479 86.4818 108.449 87.5291 105.912 88.3095C103.374 89.0487 100.26 89.4184 96.5696 89.4184H90.8952V106.545H84.6671V62.5578H97.746ZM97.1924 67.3016H90.8952V84.6747H95.8776C99.0147 84.6747 101.621 84.3872 103.697 83.8122C105.773 83.1961 107.319 82.2309 108.334 80.9167C109.349 79.6024 109.856 77.8774 109.856 75.7417C109.856 72.9078 108.841 70.7926 106.811 69.3962C104.781 67.9998 101.575 67.3016 97.1924 67.3016Z" fill="#FFAC30"/>
<path d="M169.678 84.4898C169.678 87.8988 169.194 90.9996 168.225 93.7925C167.256 96.5442 165.803 98.9264 163.865 100.939C161.974 102.951 159.598 104.491 156.738 105.559C153.923 106.627 150.648 107.161 146.911 107.161C143.036 107.161 139.668 106.627 136.808 105.559C133.947 104.45 131.572 102.91 129.68 100.939C127.789 98.9264 126.381 96.5237 125.459 93.7309C124.536 90.938 124.075 87.8371 124.075 84.4282C124.075 79.9104 124.905 75.9676 126.566 72.5997C128.227 69.2319 130.741 66.6034 134.109 64.7141C137.523 62.8248 141.813 61.8802 146.98 61.8802C151.917 61.8802 156.069 62.8248 159.436 64.7141C162.804 66.5623 165.342 69.1908 167.048 72.5997C168.802 75.9676 169.678 79.931 169.678 84.4898ZM130.649 84.4898C130.649 88.1862 131.226 91.3693 132.379 94.0389C133.532 96.7085 135.308 98.7621 137.707 100.2C140.152 101.637 143.22 102.356 146.911 102.356C150.648 102.356 153.693 101.637 156.046 100.2C158.445 98.7621 160.221 96.7085 161.374 94.0389C162.527 91.3693 163.104 88.1862 163.104 84.4898C163.104 78.9452 161.812 74.6122 159.229 71.4908C156.645 68.3283 152.562 66.7471 146.98 66.7471C143.243 66.7471 140.152 67.4659 137.707 68.9033C135.308 70.2998 133.532 72.3328 132.379 75.0024C131.226 77.631 130.649 80.7934 130.649 84.4898Z" fill="#FFAC30"/>
<path d="M267.361 106.545H261.133V67.4248H245.702V62.5578H282.724V67.4248H267.361V106.545Z" fill="#FFAC30"/>
<path d="M326.228 106.545H318.754L296.402 84.2434V106.545H290.174V62.5578H296.402V83.8738L318.201 62.5578H325.259L303.807 83.9354L326.228 106.545Z" fill="#FFAC30"/>
<path d="M383.785 163.059L384.648 161.011L382.644 160.135L381.851 162.814L383.785 163.059Z" fill="#FFAC30"/>
<path d="M388.97 165.601H388.783L392.199 167.339L390.569 163.596L387.596 162.298L388.97 165.601Z" fill="#FFAC30"/>
<path fill-rule="evenodd" clip-rule="evenodd" d="M403.856 172.945H403.219H398.071V170.326V167.657L400.562 169.067V171.047H403.607C403.759 171.047 403.906 171.045 404.05 171.042L406.906 172.658C406.044 172.849 405.027 172.945 403.856 172.945ZM394.34 172.255L391.02 170.552L392.098 173.019H394.673L394.34 172.255ZM386.977 155.35L390.569 163.596L387.596 162.298L386.756 160.278C386.701 160.147 386.608 159.909 386.479 159.564C386.35 159.219 386.221 158.866 386.092 158.504C385.981 158.126 385.889 157.839 385.815 157.642C385.723 157.97 385.621 158.307 385.51 158.652C385.418 158.981 385.317 159.285 385.206 159.564C385.114 159.843 385.031 160.081 384.957 160.278L384.648 161.011L382.644 160.135L384.735 155.35H386.977ZM377.013 160.352C376.897 159.425 376.518 157.873 375.966 157.219C375.756 156.971 375.514 156.742 375.241 156.533C374.375 155.87 373.131 155.45 371.51 155.274C370.921 155.209 370.283 155.177 369.594 155.177H368.292L377.013 160.352ZM364.363 172.772V156.877L366.854 158.155V164.024H368.847C370.102 164.024 371.144 163.909 371.975 163.679C372.805 163.433 373.423 163.047 373.829 162.521C373.97 162.338 374.087 162.135 374.179 161.913L376.322 163.012C376.067 163.448 375.725 163.851 375.296 164.221C374.687 164.747 373.875 165.166 372.86 165.478C371.846 165.774 370.6 165.922 369.124 165.922H366.854V172.772H364.363ZM377.013 173.019L380.459 165.134L385.212 167.573H381.884L379.531 173.019H377.013Z" fill="#FFAC30"/>
<path fill-rule="evenodd" clip-rule="evenodd" d="M252.249 83.3998L84.0098 1.20609L84.4589 0.547913L253.052 82.9142L253.083 82.8952L260.019 85.9747L249.899 91.8442L253.907 97.5158L241.909 103.903L243.19 107.528L230.703 106.795L236.39 99.5018L220.42 91.6994L214.607 88.8596L204.481 83.9126L199.402 81.4313L186.511 75.1335L180.698 72.2936L143.746 54.2404L144.195 53.5823L180.698 71.416L186.511 74.2559L199.882 80.7884L204.96 83.2692L214.607 87.982L220.42 90.8219L236.885 98.8663L239.035 96.1097L239.076 96.1237L220.42 87.009L214.607 84.1692L207.043 80.4739L201.969 77.9949L186.511 70.443L180.698 67.6032L158.435 56.7264L158.884 56.0683L242.762 97.0469L244.473 96.1037L240.541 90.5854L178.021 60.0411L178.47 59.3829L241.253 90.0555L252.249 83.3998ZM246.879 96.5549L242.859 90.9128L253.188 84.6614L256.577 86.1659L247.518 91.4197L251.491 97.0412L239.827 103.251L240.751 105.865L233.839 105.46L240.489 96.932L239.683 100.523L246.879 96.5549Z" fill="#FFAC30"/>
<path d="M131.994 55.0691L232.492 104.167L232.941 103.509L220.42 97.3917L214.607 94.5518L201.372 88.0858L196.287 85.6017L186.511 80.8257L180.698 77.9858L132.444 54.4109L131.994 55.0691Z" fill="#FFAC30"/>
<path fill-rule="evenodd" clip-rule="evenodd" d="M214.33 48.8812C214.145 50.9347 213.569 52.6597 212.6 54.0561C211.677 55.4525 210.293 56.4999 208.448 57.1981C206.602 57.8963 204.203 58.2454 201.251 58.2454C198.252 58.2454 195.83 57.8963 193.985 57.1981C192.186 56.4999 190.871 55.4731 190.04 54.1177C189.21 52.7213 188.703 50.9758 188.518 48.8812H194.192C194.423 51.099 195.069 52.5981 196.13 53.3785C197.237 54.1177 198.99 54.4874 201.389 54.4874C203.511 54.4874 205.172 54.0972 206.372 53.3168C207.617 52.4954 208.356 51.0169 208.586 48.8812H214.33ZM186.511 86.7077C186.511 87.7345 186.488 88.8639 186.442 90.0961C186.442 91.2871 186.419 92.4782 186.373 93.6693C186.327 94.8603 186.257 95.9282 186.165 96.8728C186.119 97.7764 186.073 98.4746 186.027 98.9674H186.304L196.287 85.6017L201.372 88.0858L187.618 106.545H180.698V77.9858L186.511 80.8257V86.7077ZM204.481 83.9126L199.402 81.4313L199.882 80.7884L204.96 83.2692L204.481 83.9126ZM207.043 80.4739L214.883 69.9507H215.16C215.114 70.4024 215.068 71.1007 215.022 72.0453C214.976 72.9899 214.907 74.0783 214.814 75.3104C214.768 76.5015 214.722 77.7542 214.676 79.0685C214.63 80.3417 214.607 81.5327 214.607 82.6416V84.1692L220.42 87.009V62.5578H213.499L201.969 77.9949L207.043 80.4739ZM220.42 90.8219L214.607 87.982V88.8596L220.42 91.6994V90.8219ZM214.607 106.545V94.5518L220.42 97.3917V106.545H214.607ZM186.511 75.1335L180.698 72.2936V71.416L186.511 74.2559V75.1335ZM186.511 70.443L180.698 67.6032V62.5578H186.511V70.443Z" fill="#FFAC30"/>
</svg>
