<svg width="18" height="17" viewBox="0 0 18 17" fill="none" xmlns="http://www.w3.org/2000/svg">
<path d="M17.75 2.36719L15.0938 14.7891C14.8854 15.6745 14.4036 15.9089 13.6484 15.4922L9.625 12.5234L7.67188 14.3984C7.41146 14.6589 7.13802 14.7891 6.85156 14.7891L7.16406 10.6875L14.625 3.96875C14.8073 3.78646 14.8073 3.68229 14.625 3.65625C14.4688 3.60417 14.2995 3.64323 14.1172 3.77344L4.89844 9.59375L0.914062 8.34375C0.471354 8.21354 0.263021 8.01823 0.289062 7.75781C0.315104 7.4974 0.588542 7.27604 1.10938 7.09375L16.6172 1.07812C17.0078 0.947917 17.3203 1 17.5547 1.23438C17.7891 1.44271 17.8542 1.82031 17.75 2.36719Z" fill="white" fill-opacity="0.5"/>
</svg>
