<svg width="22" height="13" viewBox="0 0 22 13" fill="none" xmlns="http://www.w3.org/2000/svg">
<path d="M21.0391 1.10938C20.7266 2.4375 17.9141 6.42188 17.9141 6.42188C17.6797 6.8125 17.5625 7.00781 17.9141 7.4375C18.0703 7.63281 21 10.4453 21.4297 11.7734C21.625 12.4375 21.3125 12.75 20.6484 12.75H18.3438C17.4844 12.75 17.2109 12.0859 15.6484 10.5234C14.2812 9.19531 13.6953 9 13.3438 9C12.6406 9 12.7578 9.27344 12.7578 11.8906C12.7578 12.4375 12.5625 12.75 11.1172 12.75C8.69531 12.75 6 11.3047 4.08594 8.57031C1.23438 4.54688 0.453125 1.53906 0.453125 0.914062C0.453125 0.5625 0.609375 0.25 1.23438 0.25H3.53906C4.125 0.25 4.35938 0.523438 4.59375 1.14844C5.72656 4.42969 7.60156 7.32031 8.38281 7.32031C8.69531 7.32031 8.8125 7.16406 8.8125 6.42188V3.02344C8.73438 1.46094 7.91406 1.34375 7.91406 0.796875C7.91406 0.523438 8.10938 0.25 8.5 0.25H12.0938C12.6016 0.25 12.7578 0.523438 12.7578 1.10938V5.67969C12.7578 6.14844 12.9922 6.34375 13.1094 6.34375C13.4219 6.34375 13.6562 6.14844 14.2031 5.64062C15.8438 3.76562 17.0156 0.914062 17.0156 0.914062C17.1719 0.5625 17.4453 0.25 18.0312 0.25H20.3359C21.0391 0.25 21.1562 0.640625 21.0391 1.10938Z" fill="white" fill-opacity="0.5"/>
</svg>
