<svg width="117" height="88" viewBox="0 0 117 88" fill="none" xmlns="http://www.w3.org/2000/svg">
<path fill-rule="evenodd" clip-rule="evenodd" d="M107.211 44.7714L-145 -107L-144.515 -107.875L109.128 44.7588L108.999 44.9926L113.956 47.7035L116.838 49.2798L114.202 51.1627L102.133 59.7839L107.144 68.516L108.112 70.2025L106.534 71.2374L90.3155 81.8719L91.2809 85.2354L92.074 87.9986L89.2904 87.7975L78.9547 87.051L75.5563 86.8055L77.3963 83.8988L83.4189 74.3847L-55.6708 -9.31448L-55.1863 -10.1892L83.9536 73.5401L87.3397 68.191L87.8372 68.404L-33.7047 -4.73548L-33.2201 -5.61024L92.6895 70.1576L95.9034 67.9747L90.8539 59.245L90.3704 58.4091L-4.4164 1.36987L-3.93184 0.495102L90.432 57.2799L91.3661 56.5835L106.812 45.0689L107.211 44.7714ZM91.779 70.7761L90.8482 70.2159L90.6003 71.5767L91.779 70.7761ZM-73.2438 -7.78815L77.0401 82.6472L77.5246 81.7725L-72.7592 -8.66292L-73.2438 -7.78815ZM90.0904 74.3747L98.5546 68.6256L92.5434 58.2334L107.989 46.7187L111.081 48.4096L113.056 49.4899L111.25 50.7802L99.5094 59.1671L105.451 69.5214L88.0084 80.9588L88.7956 83.7016L89.3906 85.7747L87.3023 85.6238L81.3247 85.1921L79.0549 85.0282L80.2838 83.0868L86.1715 73.7859L88.9983 69.3203L88.3028 73.1372L88.0389 74.5854L87.793 75.9352L90.0904 74.3747Z" fill="white"/>
</svg>
