<svg width="142" height="100" viewBox="0 0 142 100" fill="none" xmlns="http://www.w3.org/2000/svg">
<mask id="mask0_804_931" style="mask-type:luminance" maskUnits="userSpaceOnUse" x="4" y="8" width="134" height="85">
<path fill-rule="evenodd" clip-rule="evenodd" d="M59.4568 23.9755C60.0473 22.5673 60.3752 21.0084 60.3752 19.3684C60.3752 13.0898 55.5676 8 49.6372 8C43.7065 8 38.8989 13.0898 38.8989 19.3684C38.8989 21.7055 39.565 23.8779 40.7074 25.6844L20.8101 44.096C19.083 42.8402 16.9917 42.1052 14.7381 42.1052C8.80763 42.1052 4 47.195 4 53.4737C4 59.7524 8.80763 64.8422 14.7381 64.8422C20.6687 64.8422 25.4763 59.7524 25.4763 53.4737C25.4763 51.7469 25.1126 50.1101 24.462 48.6443L45.0102 29.6302C46.4113 30.3396 47.9804 30.7368 49.6372 30.7368C51.9713 30.7368 54.1315 29.9484 55.893 28.6094L76.8686 48.707C75.7752 50.4878 75.1402 52.6127 75.1402 54.8948C75.1402 61.1732 79.9478 66.2633 85.8784 66.2633C91.8088 66.2633 96.6164 61.1732 96.6164 54.8948C96.6164 48.6161 91.8088 43.5263 85.8784 43.5263C84.1612 43.5263 82.5383 43.9529 81.0988 44.7116L59.4568 23.9755ZM105.016 41.6315C106.33 41.6315 107.573 41.3087 108.68 40.733L121.471 54.6221C121.025 55.7216 120.777 56.9351 120.777 58.2104C120.777 60.1268 121.336 61.9034 122.289 63.3629L109.756 76.3577C108.407 75.3683 106.775 74.7896 105.016 74.7896C101.641 74.7896 98.7302 76.9229 97.3951 80H85.7925C84.4574 76.9229 81.5468 74.7896 78.1712 74.7896C74.7955 74.7896 71.8849 76.9229 70.5498 80H61.6316C60.2965 76.9229 57.3859 74.7896 54.0102 74.7896C49.3712 74.7896 45.6102 78.8189 45.6102 83.7896C45.6102 88.76 49.3712 92.7896 54.0102 92.7896C57.9375 92.7896 61.2354 89.9018 62.1552 86H70.0262C70.946 89.9018 74.2439 92.7896 78.1712 92.7896C82.0984 92.7896 85.3963 89.9018 86.3158 86H96.8718C97.7913 89.9018 101.089 92.7896 105.016 92.7896C109.656 92.7896 113.416 88.76 113.416 83.7896C113.416 82.9112 113.299 82.0622 113.08 81.26L126.941 66.8882C127.653 67.0982 128.403 67.2104 129.177 67.2104C133.816 67.2104 137.577 63.1811 137.577 58.2104C137.577 53.24 133.816 49.2104 129.177 49.2104C127.776 49.2104 126.454 49.5785 125.292 50.2289L112.618 36.467C113.13 35.3033 113.416 34.0033 113.416 32.6316C113.416 27.661 109.656 23.6316 105.016 23.6316C100.377 23.6316 96.6164 27.661 96.6164 32.6316C96.6164 37.6022 100.377 41.6315 105.016 41.6315Z" fill="white"/>
</mask>
<g mask="url(#mask0_804_931)">
<path d="M59.4564 23.9755L58.1793 23.361L57.7596 24.3621L58.5232 25.0937L59.4564 23.9755ZM40.707 25.6844L41.6221 26.8196L42.5643 25.9476L41.866 24.8431L40.707 25.6844ZM20.8097 44.096L20.0236 45.3371L20.9121 45.9833L21.7248 45.2312L20.8097 44.096ZM24.4616 48.6443L23.5465 47.5088L22.739 48.2561L23.1973 49.2884L24.4616 48.6443ZM45.0098 29.6302L45.6079 28.274L44.7841 27.857L44.0948 28.495L45.0098 29.6302ZM55.8926 28.6094L56.8258 27.4913L55.9934 26.6937L55.0825 27.386L55.8926 28.6094ZM76.8682 48.707L78.0378 49.5314L78.7014 48.4511L77.8014 47.5889L76.8682 48.707ZM81.0984 44.7116L80.1652 45.8297L80.8691 46.5041L81.7167 46.0577L81.0984 44.7116ZM108.68 40.733L109.676 39.6794L108.971 38.9138L108.068 39.3836L108.68 40.733ZM121.471 54.6221L122.755 55.2209L123.133 54.2906L122.468 53.5688L121.471 54.6221ZM122.289 63.3629L123.262 64.4408L124.12 63.5513L123.436 62.5031L122.289 63.3629ZM109.756 76.3577L108.965 77.5955L109.908 78.2873L110.729 77.4356L109.756 76.3577ZM97.3947 80V81.5H98.2879L98.6642 80.6324L97.3947 80ZM85.7921 80L84.5226 80.6324L84.8989 81.5H85.7921V80ZM70.5494 80V81.5H71.4424L71.819 80.6324L70.5494 80ZM61.6312 80L60.3616 80.6324L60.7382 81.5H61.6312V80ZM62.1548 86V84.5H61.0642L60.7973 85.6328L62.1548 86ZM70.0258 86L71.3833 85.6328L71.1164 84.5H70.0258V86ZM86.3154 86V84.5H85.2251L84.9582 85.6328L86.3154 86ZM96.8714 86L98.2288 85.6328L97.9617 84.5H96.8714V86ZM113.08 81.26L112.106 80.1818L111.499 80.8115L111.736 81.6806L113.08 81.26ZM126.941 66.8882L127.313 65.4419L126.542 65.2145L125.967 65.8103L126.941 66.8882ZM125.292 50.2289L124.295 51.2825L125.023 52.0721L125.94 51.5585L125.292 50.2289ZM112.617 36.467L111.351 35.8271L110.934 36.7745L111.621 37.5206L112.617 36.467ZM58.9748 19.3684C58.9748 20.7921 58.6906 22.1418 58.1793 23.361L60.7335 24.5901C61.4032 22.9927 61.7748 21.2247 61.7748 19.3684H58.9748ZM49.6368 9.5C54.8098 9.5 58.9748 13.9351 58.9748 19.3684H61.7748C61.7748 12.2445 56.3246 6.5 49.6368 6.5V9.5ZM40.2985 19.3684C40.2985 13.9351 44.4635 9.5 49.6368 9.5V6.5C42.9487 6.5 37.4985 12.2445 37.4985 19.3684H40.2985ZM41.866 24.8431C40.8753 23.2761 40.2985 21.3952 40.2985 19.3684H37.4985C37.4985 22.0159 38.2542 24.4797 39.5478 26.5257L41.866 24.8431ZM21.7248 45.2312L41.6221 26.8196L39.7917 24.5492L19.8946 42.9608L21.7248 45.2312ZM14.7377 43.6052C16.7032 43.6052 18.522 44.2454 20.0236 45.3371L21.5959 42.8549C19.6433 41.435 17.2793 40.6052 14.7377 40.6052V43.6052ZM5.39961 53.4737C5.39961 48.0404 9.56461 43.6052 14.7377 43.6052V40.6052C8.04987 40.6052 2.59961 46.3499 2.59961 53.4737H5.39961ZM14.7377 63.3422C9.56461 63.3422 5.39961 58.907 5.39961 53.4737H2.59961C2.59961 60.5975 8.04987 66.3422 14.7377 66.3422V63.3422ZM24.0759 53.4737C24.0759 58.907 19.9109 63.3422 14.7377 63.3422V66.3422C21.4256 66.3422 26.8759 60.5975 26.8759 53.4737H24.0759ZM23.1973 49.2884C23.7607 50.5577 24.0759 51.9749 24.0759 53.4737H26.8759C26.8759 51.5189 26.4638 49.6622 25.7259 47.9999L23.1973 49.2884ZM44.0948 28.495L23.5465 47.5088L25.3767 49.7795L45.9248 30.7655L44.0948 28.495ZM49.6368 29.2368C48.1906 29.2368 46.8256 28.8905 45.6079 28.274L44.4114 30.9864C45.9962 31.7887 47.7692 32.2368 49.6368 32.2368V29.2368ZM55.0825 27.386C53.5509 28.5503 51.6724 29.2368 49.6368 29.2368V32.2368C52.2694 32.2368 54.7112 31.3466 56.7026 29.8328L55.0825 27.386ZM77.8014 47.5889L56.8258 27.4913L54.9593 29.7275L75.935 49.8251L77.8014 47.5889ZM76.5398 54.8948C76.5398 52.9157 77.0897 51.0758 78.0378 49.5314L75.6986 47.8826C74.4602 49.8998 73.7398 52.3097 73.7398 54.8948H76.5398ZM85.878 64.7633C80.7048 64.7633 76.5398 60.3281 76.5398 54.8948H73.7398C73.7398 62.0186 79.19 67.7633 85.878 67.7633V64.7633ZM95.216 54.8948C95.216 60.3281 91.051 64.7633 85.878 64.7633V67.7633C92.5658 67.7633 98.016 62.0186 98.016 54.8948H95.216ZM85.878 45.0263C91.051 45.0263 95.216 49.4615 95.216 54.8948H98.016C98.016 47.7707 92.5658 42.0263 85.878 42.0263V45.0263ZM81.7167 46.0577C82.9674 45.3983 84.3795 45.0263 85.878 45.0263V42.0263C83.9424 42.0263 82.1084 42.5078 80.4805 43.3658L81.7167 46.0577ZM58.5232 25.0937L80.1652 45.8297L82.0317 43.5935L60.3896 22.8574L58.5232 25.0937ZM108.068 39.3836C107.147 39.8624 106.113 40.1315 105.016 40.1315V43.1315C106.546 43.1315 107.997 42.755 109.291 42.0824L108.068 39.3836ZM122.468 53.5688L109.676 39.6794L107.683 41.7866L120.475 55.6757L122.468 53.5688ZM122.177 58.2104C122.177 57.1448 122.384 56.135 122.755 55.2209L120.187 54.0236C119.666 55.3082 119.377 56.7254 119.377 58.2104H122.177ZM123.436 62.5031C122.642 61.2875 122.177 59.8094 122.177 58.2104H119.377C119.377 60.4442 120.029 62.519 121.142 64.2227L123.436 62.5031ZM110.729 77.4356L123.262 64.4408L121.315 62.285L108.782 75.2798L110.729 77.4356ZM105.016 76.2896C106.483 76.2896 107.841 76.7714 108.965 77.5955L110.546 75.1199C108.972 73.9652 107.066 73.2896 105.016 73.2896V76.2896ZM98.6642 80.6324C99.7784 78.0647 102.205 76.2896 105.016 76.2896V73.2896C101.076 73.2896 97.6814 75.7811 96.1252 79.3676L98.6642 80.6324ZM85.7921 81.5H97.3947V78.5H85.7921V81.5ZM78.1708 76.2896C80.9817 76.2896 83.4084 78.0647 84.5226 80.6324L87.0616 79.3676C85.5056 75.7811 82.1112 73.2896 78.1708 73.2896V76.2896ZM71.819 80.6324C72.9331 78.0647 75.3598 76.2896 78.1708 76.2896V73.2896C74.2303 73.2896 70.8359 75.7811 69.2799 79.3676L71.819 80.6324ZM61.6312 81.5H70.5494V78.5H61.6312V81.5ZM54.0098 76.2896C56.8208 76.2896 59.2478 78.0647 60.3616 80.6324L62.9007 79.3676C61.3447 75.7811 57.9503 73.2896 54.0098 73.2896V76.2896ZM47.0098 83.7896C47.0098 79.6472 50.1439 76.2896 54.0098 76.2896V73.2896C48.5974 73.2896 44.2098 77.9906 44.2098 83.7896H47.0098ZM54.0098 91.2896C50.1439 91.2896 47.0098 87.9317 47.0098 83.7896H44.2098C44.2098 89.5886 48.5974 94.2896 54.0098 94.2896V91.2896ZM60.7973 85.6328C60.031 88.8845 57.2808 91.2896 54.0098 91.2896V94.2896C58.5937 94.2896 62.4392 90.9191 63.5119 86.3672L60.7973 85.6328ZM70.0258 84.5H62.1548V87.5H70.0258V84.5ZM78.1708 91.2896C74.8998 91.2896 72.1496 88.8845 71.3833 85.6328L68.6687 86.3672C69.7414 90.9191 73.5869 94.2896 78.1708 94.2896V91.2896ZM84.9582 85.6328C84.1916 88.8845 81.4417 91.2896 78.1708 91.2896V94.2896C82.7546 94.2896 86.6002 90.9191 87.6728 86.3672L84.9582 85.6328ZM96.8714 84.5H86.3154V87.5H96.8714V84.5ZM105.016 91.2896C101.745 91.2896 98.9952 88.8845 98.2288 85.6328L95.514 86.3672C96.5869 90.9191 100.432 94.2896 105.016 94.2896V91.2896ZM112.016 83.7896C112.016 87.9317 108.882 91.2896 105.016 91.2896V94.2896C110.428 94.2896 114.816 89.5886 114.816 83.7896H112.016ZM111.736 81.6806C111.918 82.3478 112.016 83.0552 112.016 83.7896H114.816C114.816 82.7672 114.679 81.7769 114.423 80.8391L111.736 81.6806ZM125.967 65.8103L112.106 80.1818L114.053 82.3379L127.914 67.9661L125.967 65.8103ZM129.177 65.7104C128.529 65.7104 127.905 65.6168 127.313 65.4419L126.569 68.3342C127.401 68.5799 128.276 68.7104 129.177 68.7104V65.7104ZM136.177 58.2104C136.177 62.3528 133.043 65.7104 129.177 65.7104V68.7104C134.589 68.7104 138.977 64.0094 138.977 58.2104H136.177ZM129.177 50.7104C133.043 50.7104 136.177 54.0683 136.177 58.2104H138.977C138.977 52.4114 134.589 47.7104 129.177 47.7104V50.7104ZM125.94 51.5585C126.907 51.0173 128.006 50.7104 129.177 50.7104V47.7104C127.544 47.7104 126.001 48.1397 124.643 48.8996L125.94 51.5585ZM111.621 37.5206L124.295 51.2825L126.288 49.1753L113.614 35.4134L111.621 37.5206ZM112.016 32.6316C112.016 33.7775 111.777 34.8594 111.351 35.8271L113.884 37.1069C114.482 35.7476 114.816 34.2292 114.816 32.6316H112.016ZM105.016 25.1316C108.882 25.1316 112.016 28.4894 112.016 32.6316H114.816C114.816 26.8326 110.428 22.1316 105.016 22.1316V25.1316ZM98.016 32.6316C98.016 28.4894 101.15 25.1316 105.016 25.1316V22.1316C99.6036 22.1316 95.216 26.8326 95.216 32.6316H98.016ZM105.016 40.1315C101.15 40.1315 98.016 36.7736 98.016 32.6316H95.216C95.216 38.4305 99.6036 43.1315 105.016 43.1315V40.1315Z" fill="white"/>
</g>
</svg>
