<svg width="651" height="383" viewBox="0 0 651 383" fill="none" xmlns="http://www.w3.org/2000/svg">
<line x1="492.004" y1="290.99" x2="650.089" y2="382.26" stroke="#C4C4C4"/>
<path d="M4.01843 188.847V200.222H2.51062V188.847H4.01843ZM11.0262 188.847L6.08875 195.105H3.41687L3.1825 193.855H5.19031L9.15906 188.847H11.0262ZM9.51062 200.222L5.23718 194.909L6.08093 193.589L11.3544 200.222H9.51062Z" fill="white"/>
<path d="M25.1725 189.855L21.4069 200.222H19.8678L24.2038 188.847H25.1959L25.1725 189.855ZM28.3288 200.222L24.5553 189.855L24.5319 188.847H25.5241L29.8756 200.222H28.3288ZM28.1334 196.011V197.245H21.7428V196.011H28.1334Z" fill="white"/>
<path d="M39.0609 188.847H40.5687V192.402C40.5687 192.99 40.6547 193.451 40.8266 193.784C40.9984 194.118 41.2588 194.352 41.6078 194.488C41.9568 194.623 42.3917 194.691 42.9125 194.691C43.225 194.691 43.5271 194.678 43.8187 194.652C44.1156 194.626 44.4047 194.589 44.6859 194.542C44.9672 194.495 45.2432 194.438 45.5141 194.37C45.7901 194.303 46.0609 194.23 46.3266 194.152V195.386C46.0713 195.464 45.8161 195.537 45.5609 195.605C45.3109 195.673 45.0505 195.73 44.7797 195.777C44.5141 195.824 44.2276 195.86 43.9203 195.886C43.6182 195.912 43.2823 195.925 42.9125 195.925C42.1104 195.925 41.4203 195.811 40.8422 195.581C40.2693 195.347 39.8292 194.972 39.5219 194.456C39.2146 193.941 39.0609 193.256 39.0609 192.402V188.847ZM45.9437 188.847H47.4516V200.222H45.9437V188.847Z" fill="white"/>
<path d="M65.6212 198.995V200.222H59.5978V198.995H65.6212ZM59.9025 188.847V200.222H58.3947V188.847H59.9025ZM64.8244 193.738V194.964H59.5978V193.738H64.8244ZM65.5431 188.847V190.081H59.5978V188.847H65.5431Z" fill="white"/>
<path d="M82.5956 196.605H84.0956C84.0175 197.324 83.8118 197.967 83.4784 198.534C83.1451 199.102 82.6738 199.553 82.0644 199.886C81.455 200.214 80.6946 200.378 79.7831 200.378C79.1165 200.378 78.5097 200.253 77.9628 200.003C77.4212 199.753 76.955 199.399 76.5644 198.941C76.1738 198.477 75.8717 197.923 75.6581 197.277C75.4498 196.626 75.3456 195.902 75.3456 195.105V193.972C75.3456 193.175 75.4498 192.454 75.6581 191.808C75.8717 191.157 76.1764 190.6 76.5722 190.136C76.9732 189.673 77.455 189.316 78.0175 189.066C78.58 188.816 79.2128 188.691 79.9159 188.691C80.7753 188.691 81.5019 188.852 82.0956 189.175C82.6894 189.498 83.1503 189.946 83.4784 190.519C83.8118 191.087 84.0175 191.745 84.0956 192.495H82.5956C82.5227 191.964 82.3873 191.508 82.1894 191.128C81.9915 190.743 81.7102 190.446 81.3456 190.238C80.981 190.029 80.5045 189.925 79.9159 189.925C79.4107 189.925 78.9654 190.021 78.58 190.214C78.1998 190.407 77.8795 190.68 77.6191 191.034C77.3639 191.389 77.1712 191.813 77.0409 192.308C76.9107 192.803 76.8456 193.352 76.8456 193.956V195.105C76.8456 195.662 76.9029 196.186 77.0175 196.675C77.1373 197.165 77.317 197.594 77.5566 197.964C77.7962 198.334 78.1008 198.626 78.4706 198.839C78.8404 199.048 79.2779 199.152 79.7831 199.152C80.4238 199.152 80.9342 199.05 81.3144 198.847C81.6946 198.644 81.981 198.352 82.1738 197.972C82.3717 197.592 82.5123 197.136 82.5956 196.605Z" fill="white"/>
<path d="M98.3591 188.847V200.222H96.8747V188.847H98.3591ZM102.015 188.847V190.081H93.2262V188.847H102.015Z" fill="white"/>
<path d="M115.997 194.902H113.115L113.099 193.691H115.716C116.149 193.691 116.526 193.618 116.849 193.472C117.172 193.326 117.422 193.118 117.599 192.847C117.781 192.571 117.872 192.243 117.872 191.863C117.872 191.446 117.792 191.107 117.63 190.847C117.474 190.581 117.232 190.389 116.904 190.269C116.581 190.144 116.169 190.081 115.669 190.081H113.451V200.222H111.943V188.847H115.669C116.253 188.847 116.774 188.907 117.232 189.027C117.69 189.141 118.078 189.324 118.396 189.574C118.719 189.818 118.964 190.131 119.13 190.511C119.297 190.891 119.38 191.347 119.38 191.878C119.38 192.347 119.261 192.771 119.021 193.152C118.781 193.527 118.448 193.834 118.021 194.074C117.599 194.313 117.104 194.467 116.537 194.534L115.997 194.902ZM115.927 200.222H112.521L113.372 198.995H115.927C116.406 198.995 116.813 198.912 117.146 198.745C117.484 198.579 117.742 198.344 117.919 198.042C118.096 197.735 118.185 197.373 118.185 196.956C118.185 196.534 118.109 196.17 117.958 195.863C117.807 195.555 117.57 195.318 117.247 195.152C116.925 194.985 116.508 194.902 115.997 194.902H113.849L113.865 193.691H116.802L117.122 194.128C117.669 194.175 118.133 194.331 118.513 194.597C118.893 194.857 119.182 195.191 119.38 195.597C119.583 196.003 119.685 196.451 119.685 196.941C119.685 197.649 119.529 198.248 119.216 198.738C118.909 199.222 118.474 199.592 117.912 199.847C117.349 200.097 116.688 200.222 115.927 200.222Z" fill="white"/>
<path d="M137.378 198.995V200.222H131.355V198.995H137.378ZM131.659 188.847V200.222H130.152V188.847H131.659ZM136.581 193.738V194.964H131.355V193.738H136.581ZM137.3 188.847V190.081H131.355V188.847H137.3Z" fill="white"/>
<path d="M154.915 193.738V194.964H148.759V193.738H154.915ZM148.993 188.847V200.222H147.485V188.847H148.993ZM156.228 188.847V200.222H154.728V188.847H156.228Z" fill="white"/>
<path d="M174.577 193.738V194.964H168.421V193.738H174.577ZM168.655 188.847V200.222H167.147V188.847H168.655ZM175.889 188.847V200.222H174.389V188.847H175.889Z" fill="white"/>
<path d="M188.028 193.48H191.129C191.963 193.48 192.666 193.62 193.239 193.902C193.812 194.178 194.247 194.566 194.544 195.066C194.84 195.566 194.989 196.152 194.989 196.824C194.989 197.324 194.905 197.782 194.739 198.199C194.572 198.61 194.325 198.969 193.997 199.277C193.669 199.579 193.265 199.813 192.786 199.98C192.307 200.141 191.754 200.222 191.129 200.222H186.879V188.847H188.387V198.995H191.129C191.687 198.995 192.137 198.894 192.481 198.691C192.83 198.482 193.085 198.212 193.247 197.878C193.408 197.545 193.489 197.188 193.489 196.808C193.489 196.428 193.408 196.079 193.247 195.761C193.085 195.443 192.83 195.191 192.481 195.003C192.137 194.811 191.687 194.714 191.129 194.714H188.028V193.48ZM197.872 188.847V200.222H196.364V188.847H197.872Z" fill="white"/>
<path d="M216.119 198.995V200.222H210.096V198.995H216.119ZM210.401 188.847V200.222H208.893V188.847H210.401ZM215.323 193.738V194.964H210.096V193.738H215.323ZM216.041 188.847V190.081H210.096V188.847H216.041Z" fill="white"/>
<path d="M520.943 254.446V231.598H523.823V241.262H527.343C529.476 241.262 531.151 241.55 532.367 242.126C533.604 242.702 534.479 243.481 534.991 244.462C535.524 245.443 535.791 246.542 535.791 247.758C535.791 249.102 535.503 250.275 534.927 251.278C534.372 252.281 533.497 253.059 532.303 253.614C531.108 254.169 529.572 254.446 527.695 254.446H520.943ZM527.439 252.014C529.273 252.014 530.628 251.662 531.503 250.958C532.378 250.254 532.815 249.187 532.815 247.758C532.815 246.777 532.602 245.998 532.175 245.422C531.769 244.846 531.14 244.43 530.287 244.174C529.433 243.918 528.346 243.79 527.023 243.79H523.823V252.014H527.439ZM539.311 254.446V231.598H542.191V254.446H539.311Z" fill="white"/>
<path d="M61.544 233.582C60.4773 233.582 59.5067 233.71 58.632 233.966C57.7573 234.201 56.968 234.478 56.264 234.798L55.08 232.398C55.9547 231.971 56.9573 231.641 58.088 231.406C59.2187 231.171 60.3813 231.054 61.576 231.054C63.4107 231.054 65 231.342 66.344 231.918C67.7093 232.473 68.84 233.262 69.736 234.286C70.632 235.31 71.2933 236.515 71.72 237.902C72.168 239.267 72.392 240.771 72.392 242.414C72.392 244.91 71.9867 247.065 71.176 248.878C70.3653 250.691 69.1387 252.089 67.496 253.07C65.8747 254.051 63.8267 254.542 61.352 254.542C60.0293 254.542 58.9093 254.467 57.992 254.318C57.0747 254.169 56.168 253.934 55.272 253.614V251.118C56.168 251.353 57.0747 251.566 57.992 251.758C58.9093 251.929 59.88 252.014 60.904 252.014C62.2907 252.014 63.496 251.833 64.52 251.47C65.5653 251.086 66.44 250.542 67.144 249.838C67.848 249.113 68.3813 248.227 68.744 247.182C69.1067 246.115 69.3093 244.899 69.352 243.534H58.248V241.006H69.32C69.2133 239.833 68.9573 238.787 68.552 237.87C68.1467 236.953 67.6027 236.174 66.92 235.534C66.2587 234.894 65.4693 234.414 64.552 234.094C63.656 233.753 62.6533 233.582 61.544 233.582Z" fill="white"/>
<path d="M93.297 254.222H90.417V233.902H83.185C83.0357 235.075 82.8757 236.313 82.705 237.614C82.5343 238.894 82.353 240.163 82.161 241.422C81.9903 242.681 81.8197 243.865 81.649 244.974C81.4783 246.083 81.3077 247.054 81.137 247.886C80.8597 249.315 80.5183 250.531 80.113 251.534C79.7077 252.537 79.1637 253.294 78.481 253.806C77.8197 254.318 76.945 254.574 75.857 254.574C75.4943 254.574 75.121 254.531 74.737 254.446C74.3743 254.382 74.0543 254.297 73.777 254.19V251.79C74.0117 251.897 74.2783 251.993 74.577 252.078C74.8757 252.142 75.1957 252.174 75.537 252.174C76.177 252.174 76.6783 251.918 77.041 251.406C77.425 250.873 77.7237 250.222 77.937 249.454C78.1503 248.665 78.3317 247.886 78.481 247.118C78.609 246.499 78.7583 245.678 78.929 244.654C79.0997 243.609 79.281 242.393 79.473 241.006C79.6863 239.619 79.8997 238.115 80.113 236.494C80.3477 234.851 80.5717 233.145 80.785 231.374H93.297V254.222Z" fill="white"/>
<path d="M112.273 254.222H99.5052V231.374H112.273V233.902H102.385V241.038H111.697V243.534H102.385V251.694H112.273V254.222Z" fill="white"/>
<path d="M133.958 254.222H130.503L120.166 242.638V254.222H117.286V231.374H120.166V242.446L130.246 231.374H133.51L123.59 242.478L133.958 254.222Z" fill="white"/>
<path d="M144.3 254.222H141.42V233.902H134.284V231.374H151.404V233.902H144.3V254.222Z" fill="white"/>
<path d="M160.897 231.374C163.884 231.374 166.06 231.961 167.425 233.134C168.79 234.307 169.473 235.961 169.473 238.094C169.473 239.033 169.313 239.939 168.993 240.814C168.694 241.667 168.193 242.435 167.489 243.118C166.785 243.801 165.846 244.345 164.673 244.75C163.5 245.134 162.06 245.326 160.353 245.326H157.729V254.222H154.849V231.374H160.897ZM160.641 233.838H157.729V242.862H160.033C161.484 242.862 162.689 242.713 163.649 242.414C164.609 242.094 165.324 241.593 165.793 240.91C166.262 240.227 166.497 239.331 166.497 238.222C166.497 236.75 166.028 235.651 165.089 234.926C164.15 234.201 162.668 233.838 160.641 233.838Z" fill="white"/>
<path d="M194.16 242.766C194.16 244.537 193.936 246.147 193.488 247.598C193.04 249.027 192.368 250.265 191.472 251.31C190.597 252.355 189.499 253.155 188.176 253.71C186.875 254.265 185.36 254.542 183.632 254.542C181.84 254.542 180.283 254.265 178.96 253.71C177.637 253.134 176.539 252.334 175.664 251.31C174.789 250.265 174.139 249.017 173.712 247.566C173.285 246.115 173.072 244.505 173.072 242.734C173.072 240.387 173.456 238.339 174.224 236.59C174.992 234.841 176.155 233.475 177.712 232.494C179.291 231.513 181.275 231.022 183.664 231.022C185.947 231.022 187.867 231.513 189.424 232.494C190.981 233.454 192.155 234.819 192.944 236.59C193.755 238.339 194.16 240.398 194.16 242.766ZM176.112 242.766C176.112 244.686 176.379 246.339 176.912 247.726C177.445 249.113 178.267 250.179 179.376 250.926C180.507 251.673 181.925 252.046 183.632 252.046C185.36 252.046 186.768 251.673 187.856 250.926C188.965 250.179 189.787 249.113 190.32 247.726C190.853 246.339 191.12 244.686 191.12 242.766C191.12 239.886 190.523 237.635 189.328 236.014C188.133 234.371 186.245 233.55 183.664 233.55C181.936 233.55 180.507 233.923 179.376 234.67C178.267 235.395 177.445 236.451 176.912 237.838C176.379 239.203 176.112 240.846 176.112 242.766Z" fill="white"/>
<path d="M209.304 254.222L201.784 234.19H201.656C201.699 234.617 201.731 235.161 201.752 235.822C201.795 236.483 201.827 237.209 201.848 237.998C201.869 238.766 201.88 239.555 201.88 240.366V254.222H199.224V231.374H203.48L210.52 250.094H210.648L217.816 231.374H222.04V254.222H219.192V240.174C219.192 239.427 219.203 238.691 219.224 237.966C219.245 237.219 219.277 236.526 219.32 235.886C219.363 235.225 219.395 234.67 219.416 234.222H219.288L211.672 254.222H209.304Z" fill="white"/>
<path d="M248.191 242.766C248.191 244.537 247.967 246.147 247.519 247.598C247.071 249.027 246.399 250.265 245.503 251.31C244.629 252.355 243.53 253.155 242.207 253.71C240.906 254.265 239.391 254.542 237.663 254.542C235.871 254.542 234.314 254.265 232.991 253.71C231.669 253.134 230.57 252.334 229.695 251.31C228.821 250.265 228.17 249.017 227.743 247.566C227.317 246.115 227.103 244.505 227.103 242.734C227.103 240.387 227.487 238.339 228.255 236.59C229.023 234.841 230.186 233.475 231.743 232.494C233.322 231.513 235.306 231.022 237.695 231.022C239.978 231.022 241.898 231.513 243.455 232.494C245.013 233.454 246.186 234.819 246.975 236.59C247.786 238.339 248.191 240.398 248.191 242.766ZM230.143 242.766C230.143 244.686 230.41 246.339 230.943 247.726C231.477 249.113 232.298 250.179 233.407 250.926C234.538 251.673 235.957 252.046 237.663 252.046C239.391 252.046 240.799 251.673 241.887 250.926C242.997 250.179 243.818 249.113 244.351 247.726C244.885 246.339 245.151 244.686 245.151 242.766C245.151 239.886 244.554 237.635 243.359 236.014C242.165 234.371 240.277 233.55 237.695 233.55C235.967 233.55 234.538 233.923 233.407 234.67C232.298 235.395 231.477 236.451 230.943 237.838C230.41 239.203 230.143 240.846 230.143 242.766Z" fill="white"/>
<path d="M270.727 254.222H267.847V243.566H256.135V254.222H253.255V231.374H256.135V241.038H267.847V231.374H270.727V254.222Z" fill="white"/>
<path d="M284.206 254.222H281.326V233.902H274.19V231.374H291.31V233.902H284.206V254.222Z" fill="white"/>
<path d="M306.841 254.222L304.089 247.15H295.033L292.313 254.222H289.401L298.329 231.278H300.921L309.817 254.222H306.841ZM300.665 237.678C300.601 237.507 300.495 237.198 300.345 236.75C300.196 236.302 300.047 235.843 299.897 235.374C299.769 234.883 299.663 234.51 299.577 234.254C299.471 234.681 299.353 235.118 299.225 235.566C299.119 235.993 299.001 236.387 298.873 236.75C298.767 237.113 298.671 237.422 298.585 237.678L295.993 244.59H303.225L300.665 237.678Z" fill="white"/>
<path d="M319.055 242.478L310.191 231.374H313.391L322.127 242.446V231.374H324.879V242.446L333.615 231.374H336.815L327.951 242.446L337.103 254.222H333.807L324.879 242.638V254.222H322.127V242.638L313.167 254.222H309.871L319.055 242.478Z" fill="white"/>
<path d="M357.727 254.222H354.847V243.566H343.135V254.222H340.255V231.374H343.135V241.038H354.847V231.374H357.727V254.222Z" fill="white"/>
<path d="M363.974 254.222V231.374H366.854V241.038H370.374C372.507 241.038 374.182 241.326 375.398 241.902C376.635 242.478 377.51 243.257 378.022 244.238C378.555 245.219 378.822 246.318 378.822 247.534C378.822 248.878 378.534 250.051 377.958 251.054C377.403 252.057 376.529 252.835 375.334 253.39C374.139 253.945 372.603 254.222 370.726 254.222H363.974ZM370.47 251.79C372.305 251.79 373.659 251.438 374.534 250.734C375.409 250.03 375.846 248.963 375.846 247.534C375.846 246.553 375.633 245.774 375.206 245.198C374.801 244.622 374.171 244.206 373.318 243.95C372.465 243.694 371.377 243.566 370.054 243.566H366.854V251.79H370.47ZM382.342 254.222V231.374H385.222V254.222H382.342Z" fill="white"/>
<path d="M404.211 254.222H391.443V231.374H404.211V233.902H394.323V241.038H403.635V243.534H394.323V251.694H404.211V254.222Z" fill="white"/>
<path d="M460.193 254.446V251.045V247.58V231.598H473.761V234.126H463.073V241.262H466.465C468.747 241.262 470.518 241.55 471.777 242.126C473.035 242.681 473.91 243.449 474.401 244.43C474.891 245.39 475.137 246.499 475.137 247.758C475.137 249.145 474.859 250.339 474.305 251.342C473.771 252.345 472.897 253.113 471.681 253.646C471.295 253.815 470.87 253.958 470.406 254.073C469.41 254.322 468.235 254.446 466.881 254.446H466.145H460.193ZM466.593 251.982C466.768 251.982 466.939 251.979 467.105 251.974C468.883 251.921 470.152 251.582 470.913 250.958C471.745 250.254 472.161 249.187 472.161 247.758C472.161 246.777 471.958 245.998 471.553 245.422C471.169 244.825 470.529 244.398 469.633 244.142C468.758 243.886 467.585 243.758 466.113 243.758H463.073V249.411V251.982H466.593Z" fill="white"/>
<path d="M499.816 243.118C499.816 244.889 499.592 246.499 499.144 247.95C498.696 249.379 498.024 250.617 497.128 251.662C496.254 252.707 495.155 253.507 493.832 254.062C492.531 254.617 491.016 254.894 489.288 254.894C487.496 254.894 485.939 254.617 484.616 254.062C483.294 253.486 482.195 252.686 481.32 251.662C480.446 250.617 479.795 249.369 479.368 247.918C478.942 246.467 478.728 244.857 478.728 243.086C478.728 240.739 479.112 238.691 479.88 236.942C480.648 235.193 481.811 233.827 483.368 232.846C484.947 231.865 486.931 231.374 489.32 231.374C491.603 231.374 493.523 231.865 495.08 232.846C496.638 233.806 497.811 235.171 498.6 236.942C499.411 238.691 499.816 240.75 499.816 243.118ZM481.768 243.118C481.768 245.038 482.035 246.691 482.568 248.078C483.102 249.465 483.923 250.531 485.032 251.278C486.163 252.025 487.582 252.398 489.288 252.398C491.016 252.398 492.424 252.025 493.512 251.278C494.622 250.531 495.443 249.465 495.976 248.078C496.51 246.691 496.776 245.038 496.776 243.118C496.776 240.238 496.179 237.987 494.984 236.366C493.79 234.723 491.902 233.902 489.32 233.902C487.592 233.902 486.163 234.275 485.032 235.022C483.923 235.747 483.102 236.803 482.568 238.19C482.035 239.555 481.768 241.198 481.768 243.118Z" fill="white"/>
<path d="M511.144 254.222H508.264V233.902H501.128V231.374H518.248V233.902H511.144V254.222Z" fill="white"/>
<path d="M27.36 116.622C24.32 116.622 21.5733 117.155 19.12 118.222C16.6667 119.235 14.5867 120.755 12.88 122.782C11.1733 124.755 9.86667 127.182 8.96 130.062C8.05333 132.889 7.6 136.089 7.6 139.662C7.6 144.355 8.31999 148.435 9.75999 151.902C11.2533 155.369 13.44 158.035 16.32 159.902C19.2533 161.769 22.9067 162.702 27.28 162.702C29.7867 162.702 32.16 162.489 34.4 162.062C36.64 161.635 38.8267 161.102 40.96 160.462V166.702C38.8267 167.502 36.6133 168.089 34.32 168.462C32.08 168.835 29.3867 169.022 26.24 169.022C20.4267 169.022 15.5733 167.822 11.68 165.422C7.78667 163.022 4.85333 159.609 2.88 155.182C0.959997 150.755 0 145.555 0 139.582C0 135.262 0.586661 131.315 1.75999 127.742C2.98666 124.169 4.74666 121.075 7.03999 118.462C9.38666 115.849 12.2667 113.849 15.68 112.462C19.0933 111.022 23.0133 110.302 27.44 110.302C30.3733 110.302 33.2 110.595 35.92 111.182C38.64 111.769 41.0667 112.595 43.2 113.662L40.32 119.742C38.56 118.942 36.5867 118.222 34.4 117.582C32.2667 116.942 29.92 116.622 27.36 116.622Z" fill="white"/>
<path d="M71.5069 168.222H64.3069V117.422H46.4669V111.102H89.2669V117.422H71.5069V168.222Z" fill="white"/>
<path d="M113 111.102C120.467 111.102 125.907 112.569 129.32 115.502C132.733 118.435 134.44 122.569 134.44 127.902C134.44 130.249 134.04 132.515 133.24 134.702C132.493 136.835 131.24 138.755 129.48 140.462C127.72 142.169 125.373 143.529 122.44 144.542C119.507 145.502 115.907 145.982 111.64 145.982H105.08V168.222H97.88V111.102H113ZM112.36 117.262H105.08V139.822H110.84C114.467 139.822 117.48 139.449 119.88 138.702C122.28 137.902 124.067 136.649 125.24 134.942C126.413 133.235 127 130.995 127 128.222C127 124.542 125.827 121.795 123.48 119.982C121.133 118.169 117.427 117.262 112.36 117.262Z" fill="white"/>
<path d="M196.158 139.582C196.158 144.009 195.598 148.035 194.478 151.662C193.358 155.235 191.678 158.329 189.438 160.942C187.251 163.555 184.504 165.555 181.198 166.942C177.944 168.329 174.158 169.022 169.838 169.022C165.358 169.022 161.464 168.329 158.158 166.942C154.851 165.502 152.104 163.502 149.918 160.942C147.731 158.329 146.104 155.209 145.038 151.582C143.971 147.955 143.438 143.929 143.438 139.502C143.438 133.635 144.398 128.515 146.318 124.142C148.238 119.769 151.144 116.355 155.038 113.902C158.984 111.449 163.944 110.222 169.918 110.222C175.624 110.222 180.424 111.449 184.318 113.902C188.211 116.302 191.144 119.715 193.118 124.142C195.144 128.515 196.158 133.662 196.158 139.582ZM151.038 139.582C151.038 144.382 151.704 148.515 153.038 151.982C154.371 155.449 156.424 158.115 159.198 159.982C162.024 161.849 165.571 162.782 169.838 162.782C174.158 162.782 177.678 161.849 180.398 159.982C183.171 158.115 185.224 155.449 186.558 151.982C187.891 148.515 188.558 144.382 188.558 139.582C188.558 132.382 187.064 126.755 184.078 122.702C181.091 118.595 176.371 116.542 169.918 116.542C165.598 116.542 162.024 117.475 159.198 119.342C156.424 121.155 154.371 123.795 153.038 127.262C151.704 130.675 151.038 134.782 151.038 139.582Z" fill="white"/>
<path d="M27.36 116.622C24.32 116.622 21.5733 117.155 19.12 118.222C16.6667 119.235 14.5867 120.755 12.88 122.782C11.1733 124.755 9.86667 127.182 8.96 130.062C8.05333 132.889 7.6 136.089 7.6 139.662C7.6 144.355 8.31999 148.435 9.75999 151.902C11.2533 155.369 13.44 158.035 16.32 159.902C19.2533 161.769 22.9067 162.702 27.28 162.702C29.7867 162.702 32.16 162.489 34.4 162.062C36.64 161.635 38.8267 161.102 40.96 160.462V166.702C38.8267 167.502 36.6133 168.089 34.32 168.462C32.08 168.835 29.3867 169.022 26.24 169.022C20.4267 169.022 15.5733 167.822 11.68 165.422C7.78667 163.022 4.85333 159.609 2.88 155.182C0.959997 150.755 0 145.555 0 139.582C0 135.262 0.586661 131.315 1.75999 127.742C2.98666 124.169 4.74666 121.075 7.03999 118.462C9.38666 115.849 12.2667 113.849 15.68 112.462C19.0933 111.022 23.0133 110.302 27.44 110.302C30.3733 110.302 33.2 110.595 35.92 111.182C38.64 111.769 41.0667 112.595 43.2 113.662L40.32 119.742C38.56 118.942 36.5867 118.222 34.4 117.582C32.2667 116.942 29.92 116.622 27.36 116.622Z" fill="white"/>
<path d="M71.5069 168.222H64.3069V117.422H46.4669V111.102H89.2669V117.422H71.5069V168.222Z" fill="white"/>
<path d="M113 111.102C120.467 111.102 125.907 112.569 129.32 115.502C132.733 118.435 134.44 122.569 134.44 127.902C134.44 130.249 134.04 132.515 133.24 134.702C132.493 136.835 131.24 138.755 129.48 140.462C127.72 142.169 125.373 143.529 122.44 144.542C119.507 145.502 115.907 145.982 111.64 145.982H105.08V168.222H97.88V111.102H113ZM112.36 117.262H105.08V139.822H110.84C114.467 139.822 117.48 139.449 119.88 138.702C122.28 137.902 124.067 136.649 125.24 134.942C126.413 133.235 127 130.995 127 128.222C127 124.542 125.827 121.795 123.48 119.982C121.133 118.169 117.427 117.262 112.36 117.262Z" fill="white"/>
<path d="M196.158 139.582C196.158 144.009 195.598 148.035 194.478 151.662C193.358 155.235 191.678 158.329 189.438 160.942C187.251 163.555 184.504 165.555 181.198 166.942C177.944 168.329 174.158 169.022 169.838 169.022C165.358 169.022 161.464 168.329 158.158 166.942C154.851 165.502 152.104 163.502 149.918 160.942C147.731 158.329 146.104 155.209 145.038 151.582C143.971 147.955 143.438 143.929 143.438 139.502C143.438 133.635 144.398 128.515 146.318 124.142C148.238 119.769 151.144 116.355 155.038 113.902C158.984 111.449 163.944 110.222 169.918 110.222C175.624 110.222 180.424 111.449 184.318 113.902C188.211 116.302 191.144 119.715 193.118 124.142C195.144 128.515 196.158 133.662 196.158 139.582ZM151.038 139.582C151.038 144.382 151.704 148.515 153.038 151.982C154.371 155.449 156.424 158.115 159.198 159.982C162.024 161.849 165.571 162.782 169.838 162.782C174.158 162.782 177.678 161.849 180.398 159.982C183.171 158.115 185.224 155.449 186.558 151.982C187.891 148.515 188.558 144.382 188.558 139.582C188.558 132.382 187.064 126.755 184.078 122.702C181.091 118.595 176.371 116.542 169.918 116.542C165.598 116.542 162.024 117.475 159.198 119.342C156.424 121.155 154.371 123.795 153.038 127.262C151.704 130.675 151.038 134.782 151.038 139.582Z" fill="white"/>
<path d="M309.085 168.222H301.885V117.422H284.045V111.102H326.845V117.422H309.085V168.222Z" fill="white"/>
<path d="M377.138 168.222H368.498L342.658 139.262V168.222H335.458V111.102H342.658V138.782L367.858 111.102H376.018L351.218 138.862L377.138 168.222Z" fill="white"/>
<path d="M443.678 241.609L444.675 238.949L442.358 237.812L441.442 241.29L443.678 241.609Z" fill="white"/>
<path d="M449.672 244.91H449.456L453.404 247.166L451.52 242.306L448.083 240.62L449.672 244.91Z" fill="white"/>
<path fill-rule="evenodd" clip-rule="evenodd" d="M466.881 254.446H466.145H460.193V251.045V247.58L463.073 249.411V251.982H466.593C466.768 251.982 466.939 251.979 467.105 251.974L470.406 254.073C469.41 254.322 468.235 254.446 466.881 254.446ZM455.88 253.551L452.042 251.339L453.288 254.542H456.264L455.88 253.551ZM447.368 231.598L451.52 242.306L448.083 240.62L447.112 237.998C447.048 237.827 446.941 237.518 446.792 237.07C446.643 236.622 446.493 236.163 446.344 235.694C446.216 235.203 446.109 234.83 446.024 234.574C445.917 235.001 445.8 235.438 445.672 235.886C445.565 236.313 445.448 236.707 445.32 237.07C445.213 237.433 445.117 237.742 445.032 237.998L444.675 238.949L442.358 237.812L444.776 231.598H447.368ZM435.848 238.094C435.715 236.89 435.276 234.874 434.638 234.025C434.395 233.703 434.116 233.405 433.8 233.134C432.799 232.273 431.361 231.728 429.487 231.499C428.806 231.416 428.068 231.374 427.272 231.374H425.766L435.848 238.094ZM421.224 254.222V233.581L424.104 235.24V242.862H426.408C427.859 242.862 429.064 242.713 430.024 242.414C430.984 242.094 431.699 241.593 432.168 240.91C432.331 240.673 432.466 240.409 432.573 240.12L435.05 241.548C434.755 242.114 434.36 242.637 433.864 243.118C433.16 243.801 432.221 244.345 431.048 244.75C429.875 245.134 428.435 245.326 426.728 245.326H424.104V254.222H421.224ZM435.848 254.542L439.832 244.304L445.327 247.47H441.48L438.76 254.542H435.848Z" fill="white"/>
<path fill-rule="evenodd" clip-rule="evenodd" d="M291.615 138.166L97.1201 31.4331L97.6393 30.5784L292.542 137.536L292.579 137.511L300.597 141.51L288.897 149.132L293.531 156.497L279.66 164.791L281.142 169.498L266.706 168.547L273.28 159.076L254.818 148.944L248.098 145.256L236.392 138.832L230.52 135.61L215.618 127.432L208.898 123.744L166.178 100.301L166.698 99.4466L208.898 122.605L215.618 126.293L231.075 134.775L236.946 137.997L248.098 144.117L254.818 147.805L273.853 158.251L276.338 154.671L276.386 154.689L254.818 142.853L248.098 139.166L239.354 134.367L233.488 131.148L215.618 121.341L208.898 117.654L183.16 103.53L183.679 102.675L280.647 155.888L282.624 154.663L278.079 147.497L205.802 107.834L206.321 106.979L278.902 146.809L291.615 138.166ZM285.407 155.249L280.759 147.923L292.7 139.805L296.618 141.758L286.145 148.581L290.738 155.881L277.254 163.944L278.322 167.339L270.332 166.813L278.019 155.739L277.087 160.402L285.407 155.249Z" fill="white"/>
<path d="M152.593 101.377L268.774 165.134L269.293 164.28L254.818 156.336L248.098 152.648L232.797 144.252L226.919 141.026L215.618 134.824L208.898 131.136L153.112 100.523L152.593 101.377Z" fill="white"/>
<path fill-rule="evenodd" clip-rule="evenodd" d="M247.778 93.342C247.564 96.0086 246.898 98.2486 245.778 100.062C244.711 101.875 243.111 103.235 240.978 104.142C238.844 105.049 236.071 105.502 232.658 105.502C229.191 105.502 226.391 105.049 224.258 104.142C222.178 103.235 220.658 101.902 219.698 100.142C218.738 98.3286 218.151 96.062 217.938 93.342H224.498C224.764 96.222 225.511 98.1687 226.738 99.182C228.018 100.142 230.044 100.622 232.818 100.622C235.271 100.622 237.191 100.115 238.578 99.102C240.018 98.0353 240.871 96.1153 241.138 93.342H247.778ZM215.618 142.462C215.618 143.795 215.591 145.262 215.538 146.862C215.538 148.409 215.511 149.955 215.458 151.502C215.404 153.049 215.324 154.435 215.218 155.662C215.164 156.835 215.111 157.742 215.058 158.382H215.378L226.919 141.026L232.797 144.252L216.898 168.222H208.898V131.136L215.618 134.824V142.462ZM236.392 138.832L230.52 135.61L231.075 134.775L236.946 137.997L236.392 138.832ZM239.354 134.367L248.418 120.702H248.738C248.684 121.289 248.631 122.195 248.578 123.422C248.524 124.649 248.444 126.062 248.338 127.662C248.284 129.209 248.231 130.835 248.178 132.542C248.124 134.195 248.098 135.742 248.098 137.182V139.166L254.818 142.853V111.102H246.818L233.488 131.148L239.354 134.367ZM254.818 147.805L248.098 144.117V145.256L254.818 148.944V147.805ZM248.098 168.222V152.648L254.818 156.336V168.222H248.098ZM215.618 127.432L208.898 123.744V122.605L215.618 126.293V127.432ZM215.618 121.341L208.898 117.654V111.102H215.618V121.341Z" fill="white"/>
</svg>
