<svg width="76" height="87" viewBox="0 0 76 87" fill="none" xmlns="http://www.w3.org/2000/svg">
<path d="M9.5 27H7C3.68629 27 1 24.3137 1 21V7C1 3.68629 3.68629 1 7 1H61C64.3137 1 67 3.68629 67 7V21C67 24.3137 64.3137 27 61 27H34.5" stroke="#FFAC30"/>
<rect x="46.5" y="49.5" width="37" height="18" rx="5.5" transform="rotate(90 46.5 49.5)" stroke="#FFAC30"/>
<path d="M10 1.5V43C10 46.866 13.134 50 17 50V50C20.866 50 24 46.866 24 43V23.5" stroke="#FFAC30"/>
<path d="M34 1.5V34C34 36.7614 31.7614 39 29 39V39C26.2386 39 24 36.7614 24 34V20.9691" stroke="#FFAC30"/>
<path d="M66.5 14H75C75 17.3333 75 24.9 75 28.5C75 33 72.5 34 67.5 35.5C62.5 37 47 41.5 43.5 42.5C40 43.5 37.5 45 37.5 49.5" stroke="#FFAC30"/>
<rect x="28" y="57" width="19" height="8" fill="#FFAC30"/>
</svg>
