<svg width="77" height="86" viewBox="0 0 77 86" fill="none" xmlns="http://www.w3.org/2000/svg">
<path d="M8 31.5V78C8 81.3137 10.6863 84 14 84H55.5" stroke="#FFAC30" stroke-linecap="round"/>
<path d="M1 36.6011L38 8.60107L75.8018 36.6011" stroke="#FFAC30" stroke-linecap="round" stroke-linejoin="round"/>
<circle cx="37.5" cy="51.5" r="17" stroke="#FFAC30"/>
<path fill-rule="evenodd" clip-rule="evenodd" d="M37.5 63C43.8513 63 49 57.8513 49 51.5C49 45.1487 43.8513 40 37.5 40C31.1487 40 26 45.1487 26 51.5C26 57.8513 31.1487 63 37.5 63ZM43.8433 47.8635C44.0441 47.6739 44.0531 47.3574 43.8635 47.1567C43.6739 46.9559 43.3574 46.9469 43.1567 47.1365L35.0294 54.8123L31.8433 51.8032C31.6426 51.6136 31.3261 51.6226 31.1365 51.8234C30.9469 52.0241 30.9559 52.3406 31.1567 52.5302L35.0294 56.1877L43.8433 47.8635Z" fill="#FFAC30"/>
<path d="M52.3643 60.7071L68.2399 76.5827C69.802 78.1448 69.802 80.6775 68.2399 82.2396C66.6778 83.8017 64.1451 83.8017 62.583 82.2396L46.7074 66.364L52.3643 60.7071Z" stroke="#FFAC30"/>
<line x1="67.5" y1="30.5" x2="67.5" y2="68.5" stroke="#FFAC30" stroke-linecap="round"/>
</svg>
